<?xml version="1.0" encoding="UTF-8"?><svg id="a" xmlns="http://www.w3.org/2000/svg" viewBox="0 0 1411.58 757.5"><defs><style>.b{fill:#f6ecd1;}.c{fill:#eca433;}.d{fill:#e6794f;}.e{fill:#fdfdfd;}.f{fill:#86649e;}.g{fill:#b24f97;}.h{fill:#c23936;}.i{fill:#df5558;}.j{fill:#cbb23c;}.k{fill:#d37635;}.l{fill:#c563a0;}.m{fill:#ad4c4a;}.n{fill:#e04730;}.o{fill:#52bdbd;}.p{fill:#61b0d7;}.q{fill:#57af6a;}</style></defs><path class="q" d="M94.81,183.36c-1.91-.66-3.56-.72-4.33-1.57-6.77-7.42-15.38-13.16-20.34-22.25-2.65-4.86-2.6-4.96,2.87-6.56,3.34-.98,6.77-2.31,8.24-5.8,1.51-3.62,2.9-2.27,4.47-.26,2.44,3.12,4.69,6.4,7.28,9.4,3.98,4.63,8.37,8.79,14.24,11.07,2.36,.92,2.98,2.31,1.35,4.88-3.49,5.51-8.52,8.69-13.78,11.09Z"/><path class="j" d="M276.63,595.26c-1.38,5.35-4.19,10.63-7.26,15.62-2.73,4.43-5.75,8.79-9.86,12.29-4.69,3.99-5.59,4.04-8.04-1.42-1.21-2.71-3.2-4.63-5.6-6.1-4.17-2.54-4.65-4.03-1.31-7.36,5.08-5.05,8.93-10.95,12.58-17.02,.75-1.25,1.37-2.64,1.73-4.05,1.53-5.86,1.89-6.14,7.1-2.79,3.32,2.13,6.85,4.05,9.33,7.34,.73,.96,1.46,1.75,1.32,3.49Z"/><path class="d" d="M581.45,164.75c.43,1.46-.86,1.53-1.64,2.01-3.59,2.24-7.26,4.04-8.78,8.78-1.19,3.72-3.99,1.83-6.2,.11-6.37-4.97-12.68-9.99-20.53-12.61-7.33-2.44-7.63-2.77-3.66-9.38,5.6-9.31,4.8-12.62,18.17-5.96,7.71,3.84,14.67,8.73,21.57,13.75,.12,.09,.58,2.18,1.06,3.29Z"/><path class="d" d="M966.88,85.01c-.88,0-2.76-.14-3.37-1.42-2.32-4.91-4.97-9.75-5.61-15.3-.2-1.7,.09-3.16,2.2-2.96,10.93,1.01,19.72-4.72,28.85-9.23,2.81-1.39,4.26-.88,4.5,1.94,.41,4.63,2.99,7.72,6.66,9.87,3.78,2.22,1.27,3.8-.38,5.05-5.2,3.94-11.21,6.22-17.35,8.35-4.87,1.69-9.8,2.92-15.51,3.7Z"/><path class="j" d="M1254.14,650.03c2.69-.87,4.56-3.12,7.3-4.03,2.7-.9,3.67-.22,3.94,2.43,.38,3.73,1.59,6.67,5.37,8.69,3.92,2.09,3.44,5.61-.47,7.99-8.85,5.37-18.88,7.43-28.68,10-3.48,.91-7.02,1.13-7.92-4.44-.5-3.12-2.62-6.1-3.82-9.27-1.94-5.13,.05-5.66,4.08-5.52,7.5,.72,13.89-2.41,20.19-5.84Z"/><path class="p" d="M336.39,411.13c-1.42,5.12-3.48,10.68-6.91,15.65-.7,1.01-1.73,.99-2.69,.77-10.95-2.53-21.88-5.13-31.31-11.75-3.22-2.26-4.36-4.34-.21-6.8,3.03-1.8,4.92-4.63,5.39-8.03,.66-4.74,2.77-3.56,5.68-2.05,6.69,3.47,13.5,6.69,21.06,7.98,1.69,.29,3.24,.11,4.89,0,2.26-.15,4.41,.44,4.1,4.23Z"/><path class="p" d="M1383.66,45.54c-12.86-2.44-24.19-5.36-33.79-12.82-2.22-1.72-2.38-2.74,.02-4.73,3.26-2.7,6.47-5.72,6.93-10.46,.26-2.63,1.37-2.68,3.67-1.49,5.55,2.89,11.12,5.75,17.1,7.82,3.91,1.35,7.81,1.18,11.72,1.65,2.58,.31,3.39,1.15,2.53,3.84-1.52,4.71-2.27,9.67-5.38,13.78-1.08,1.43-2.07,2.59-2.8,2.42Z"/><path class="j" d="M1023.78,34.73c-12.15-3.31-23.18-8.65-32.22-17.67-2.24-2.23-2.67-3.38,.89-4.67,4.08-1.49,6.66-4.77,8.01-8.96,1.06-3.29,3.09-3.1,5.13-1.06,7.08,7.06,15.53,11.76,25.15,14.07,3.56,.85,3.1,1.89,2.15,4.65-1.39,4.07-4.99,7.09-5.23,11.62-1.53,.22-1.94,2.6-3.89,2.02Z"/><path class="q" d="M966.64,6.43c-.17,3.24,.75,4.58,3.82,2.19,.26-.2,.5-.44,.79-.6,6.81-3.75,6.77-3.73,9.71,3.28,1.09,2.61,2.45,5.02,5.33,6.19,3.43,1.39,2.57,3,.23,4.86-7.18,5.71-15.66,8.32-24.35,10.46-3.96-.02-7.96,2.69-11.88-.19-3.42-4.53-3.53-10.43-6.35-15.28-.88-1.52,1.03-3.51,2.04-5.13,.22,1.11,.18,2.5,1.77,2.54,4.24,.11,8.49,.65,12.61-1.1,3.32-1.41,6.13-3.12,6.29-7.22Z"/><path class="n" d="M704.04,263.82c2.03,.08,13.42,8.4,14.29,10.7,.39,1.02,.25,1.97-.19,2.89-4.84,10.06-10.08,19.84-18.68,27.33-2.52,2.19-4.36,3.47-5.61-1.37-.92-3.57-3.92-6.11-7.44-7.6-3.1-1.31-3-2.79-.75-5.02,5.44-5.41,10.05-11.44,13.58-18.3,1.09-2.12,1.51-4.38,2.18-6.59,.32-1.05,.53-2.38,2.63-2.03Z"/><path class="l" d="M588.22,330.77c-1.79,.37-1.93-.76-2.15-1.7-1.12-4.78-4.39-7.65-8.61-9.65-1.89-.9-3.28-1.6-1.1-3.86,7.39-7.64,14.42-15.54,16.84-26.37,.5-2.21,1.89-1.76,3.43-1.06,4.75,2.15,8.77,5.31,12.52,8.86,1.38,1.3,1.63,2.81,.83,4.52-4.81,10.27-10.26,20.09-19.12,27.55-.88,.74-1.94,1.25-2.65,1.71Z"/><path class="n" d="M642.61,400.13c6.59-7.33,13.01-14.06,16.71-22.76,.26-.61,.63-1.17,.86-1.79q2.48-6.63,8.36-2.79c11.12,7.26,11.23,7.32,5.19,18.8-3.96,7.51-8.64,14.55-15.38,19.95-2,1.6-3.72,2.68-4.74-1.21-1.37-5.25-5.74-7.87-11-10.2Z"/><path class="n" d="M50.36,457.47c.07,7.17,.4,14.31,3.73,20.86,1.41,2.77,.15,3.56-2.24,3.94-.33,.05-.66,.1-.99,.14-19.63,2.24-16.03,1.64-19.27-14.06-1.44-6.98-1.61-14.18-.37-21.28,.49-2.81,.89-5.83,5.05-2.63,3.16,2.43,7.23,2.56,11,1.51,3.24-.9,3.75,.33,3.49,3.1-.26,2.8-.28,5.63-.41,8.44Z"/><path class="n" d="M845.35,244.67c-.99,.04-1.08-.89-1.25-1.66-1.05-4.63-4.3-7.51-8.29-9.32-3.6-1.63-2.42-3.14-.59-5.02,5-5.15,9.32-10.81,12.82-17.07,.88-1.58,1.71-3.25,2.19-4.98,1.75-6.35,1.84-6.58,7.49-2.68,13.15,9.06,12.24,7.09,5.32,20.26-3.49,6.64-7.81,12.72-13.33,17.87-1.21,1.13-2.49,2.21-4.36,2.61Z"/><path class="i" d="M625.97,470.56c.48,2.54-1.19,2.33-2.42,2.43-4.57,.37-8.26,2.35-11.03,5.96-1.6,2.08-2.67,1.81-4.06-.31-5.76-8.75-11.83-17.25-21.51-22.21-1.41-.72-1.53-1.56-.71-2.75,.28-.41,.58-.81,.89-1.19,9.3-11.65,13.78-12.11,24.15-1.87,5.29,5.22,10.55,10.58,13.62,17.56,.4,.9,.82,1.8,1.08,2.37Z"/><path class="p" d="M911.55,262.98c-2.42,.24-3.51-.62-4.2-2.13-2.07-4.53-4.1-9.04-5.29-13.93-.59-2.43-.19-3.38,2.45-3.29,10.04,.33,18.64-3.97,27.08-8.67,3.14-1.75,5.26-2.51,5.85,2.49,.41,3.47,2.69,6.75,5.81,8.32,4.32,2.17,2.45,3.74,.08,5.48-5.69,4.18-12.29,6.55-18.9,8.71-4.39,1.44-9.02,2.14-12.89,3.01Z"/><path class="d" d="M1129.18,277.25c.07-1.24,.06-2.25,.18-3.24,.39-3.13-.08-6.97,1.99-9.1,2.76-2.83,5.5,1.07,8.23,1.87,7.51,2.2,15.14,2.04,22.78,1.93,3.44-.05,5.93-.14,4.06,4.75-1.39,3.64-.57,7.66,1.85,10.92,1.6,2.15,1.29,3.24-1.29,3.68-12.12,2.07-23.86,.08-35.35-3.69-3.7-1.21-1.94-4.8-2.45-7.14Z"/><path class="k" d="M868.51,141.19c-1.61,.41-2.94,2.03-4.9,.18-7.53-7.07-17.16-9.73-26.83-12.15-2.89-.72-4.6-1.24-2.46-4.73,2.02-3.28,3.22-7.21,1.56-10.96-1.89-4.27,1.02-4.1,3.37-3.95,4.66,.29,9.18,1.68,13.42,3.5,5.93,2.53,11.65,5.58,17.41,8.51,2,1.02,3.12,2.9,3.92,4.96-4.3,.6-6.64,4.18-5.53,8.95,.46,1.97,1.3,3.78,.03,5.69Z"/><path class="g" d="M733.45,116.96c-.93-.64-2-1.42-3.11-2.14-8.22-5.34-16.45-10.7-26.68-11.21-2.23-.11-2.53-1.18-1.87-2.92,1.82-4.81,3.77-9.55,6.83-13.76,.98-1.34,2.01-2.28,3.7-1.74,11.39,3.62,22.79,7.22,31.79,15.72,1.98,1.87,2.21,2.83-.73,4.02-4.25,1.72-6.65,5.29-7.91,9.67-.27,.95,.07,2.55-2.03,2.36Z"/><path class="i" d="M426.21,150.85c3.04-.43,4.16,.83,3.18,3.68-1.29,3.75-.85,7.46,1.34,10.49,3.09,4.29,.47,4.71-2.85,5.49-7.78,1.82-15.34,4.19-22.17,8.6-2.05,1.32-3.59,4.77-5.84,3.97-2.76-.98-3.2-4.75-4.58-7.35-.23-.44-.35-.93-.52-1.4-3.46-9.49-3.24-9.66,5.8-14.44,8.14-4.31,16.47-7.87,25.64-9.03Z"/><path class="g" d="M750.8,291.06c-1.86,.31-2.71-.92-3.52-2.23-2.76-4.42-4.34-9.3-5.58-14.32-.5-2.05,.21-2.65,2.23-2.62,10.56,.15,19.7-4.21,28.47-9.4,2.81-1.66,3.78-1.62,4.29,1.88,.65,4.44,2.84,8.16,7.19,10.1,2.84,1.27,1.9,2.4,.08,3.8-9.79,7.58-21.51,10.08-33.17,12.79Z"/><path class="l" d="M794.2,14.09c-2.4,5.5-5.11,10.63-8.27,15.5-3.52,5.42-7.13,10.82-12.73,14.42-1.46,.94-2.97,2.08-3.54-.8-.96-4.89-4.45-7.69-8.54-9.67-2.88-1.39-2.24-2.36-.52-4.2,7.04-7.53,13.84-15.24,16.25-25.71,.28-1.23,.88-2.37,2.38-1.69,5.47,2.5,10.39,5.81,14.29,10.46,.39,.47,.49,1.18,.68,1.68Z"/><path class="p" d="M753.26,472.16c-11.01-2.73-22.39-4.49-31.64-12.03-2.19-1.78-2.89-2.99,.11-4.61,3.77-2.04,5.43-5.8,6.42-9.65,.79-3.06,1.92-3.23,4.45-1.96,4.97,2.5,9.85,5.16,15.19,6.92,3.97,1.31,7.9,2.56,12.1,2.34,3.11-.16,4.31,.76,3.18,4-1.47,4.21-2.53,8.57-4.89,12.44-1.13,1.85-2.48,3.13-4.91,2.54Z"/><path class="g" d="M288.18,724.89c2.68-.23,4.19,.09,2.94,3.51-1.43,3.94-.74,8.08,1.65,11.43,2.45,3.44,.89,3.65-2.17,4.39-9.88,2.36-19.64,5.18-27.35,12.37-1.32,1.23-2.19,1.32-3-.38-.14-.3-.3-.59-.47-.88-8.16-14.36-7.49-16.62,7.17-23.75,6.75-3.28,13.67-6.02,21.22-6.69Z"/><path class="p" d="M29.17,50.56c3.48,.04,6.96,.25,10.42,.05,2.55-.15,3.41,.94,3,3.17-.71,3.9-1.43,7.82-2.44,11.65-1,3.8-3.26,5.62-7.64,5.11-9.73-1.12-19.34-2.58-28.45-6.36-4.94-2.05-5.18-3.32-1.8-7.08,2.26-2.52,3.9-5.54,3.94-8.93,.06-4.81,1.8-5.16,5.24-2.57,.53,.4,1.12,.72,1.67,1.07,5,2.73,10.29,4.28,16.05,3.89Z"/><path class="b" d="M87.8,42.74c-.02-.95-.67-1.49-1.41-1.86-9.07-4.46-15.26-12.02-21-19.94-2.17-2.99-3.61-2.17-5.22,.12-2.02,2.85-4.73,5.19-8.06,5.27-5.31,.14-3.94,2.6-2.31,5.2,4.22,6.76,9.35,12.67,15.84,17.46,10.14,7.49,10.04,7.61,18.92-1.35,1.41-1.42,2.79-2.84,3.26-4.9Z"/><path class="f" d="M139.52,256.29c8.46-.28,16.96-.4,24.54-4.99,1.49-.9,2.49-.77,2.84,1.12,.06,.33,.1,.66,.19,.98,4.45,15.58,2.78,18.24-12.97,21.05-7.38,1.32-14.74,2.37-22.24,.91-2.65-.52-4.69-.95-2.01-4.21,2.62-3.19,2.87-7.19,1.62-10.89-1.38-4.06,.07-4.6,3.56-4.02,1.45,.24,2.98,.04,4.47,.04Z"/><path class="n" d="M592.76,102.54c-4.1-7.72-3.51-9.69,3.81-13.7,8.05-4.41,16.37-8.08,25.5-9.58,3.61-.59,6.43-.62,4.56,4.61-1.3,3.66,.14,7.25,2.09,10.43,1.38,2.24,1.51,3.34-1.55,3.97-6.82,1.41-13.38,3.73-19.87,6.22-1.26,.57-2.52,1.14-3.78,1.72-.11,.32-.34,.46-.67,.44-2.8,2.92-5.58,1.61-8.35-.07l-.02-.04c-.21-1.49,.75-3.49-1.72-4Z"/><path class="k" d="M590.41,.82c3.64-.05,7.35,.28,10.92-.25,4.61-.68,7.53,2.21,10.59,4.48,2.38,1.76-.17,3.64-1.36,4.73-7.37,6.75-13.62,14.23-16.43,24.04-.57,1.98-1.1,2.56-2.95,1.3-3.81-2.6-7.85-4.9-11.5-7.71-2.15-1.66-2.8-3.82-1.56-6.98,1.88-4.78,5.83-8.47,6.78-13.65,1.66,0,5.12-3.76,5.5-5.97Z"/><path class="h" d="M180.83,50.64c.12-.25,.18-.5,.17-.78,5.54-.79,8.93-4.27,10.73-9.21,1.1-3.02,2.1-2.92,4.35-1.14,7.98,6.28,16.28,12.06,26.63,13.75,2.23,.36,2.28,1.43,1.45,3.08-2.15,4.27-3.39,8.96-7.11,12.47-1.55,1.46-2.74,2.31-4.6,1.56-11.67-4.76-23.56-9.18-31.63-19.72Z"/><path class="c" d="M782.94,387.4c-7.07-1.43-16.76-2.45-26.56-.82-4.32,.72-3.49-3.4-4.51-5.32-2.12-3.98,1.77-9.22,6.06-10.3,7.82-1.98,15.52-.19,23.26-.29,3.46-.04,6.41,1.54,9.56,2.4,3.16,.86,3.06,3.84,3.08,6.58,.08,8.66,.12,8.66-10.9,7.75Z"/><path class="j" d="M820.49,450.27c.84-1.57,2.6-1.3,3.9-1.94,1.7-.01,3.22-.57,4.75-1.29,5.28-2.48,10.81-4.17,16.64-4.79,2.62-.28,3.77,.52,2.7,3.35-1.26,3.31-.68,6.67,.98,9.57,2.26,3.95,.95,5.24-3.04,6.27-9.13,2.35-18.37,4.66-25.33,11.78-1.32,1.35-2.28,.86-3.01-.72-.7-1.5-1.54-2.94-2.26-4.43-4.83-10.07-4.7-10.59,4.1-16.99,.25-.18,.38-.53,.57-.8Z"/><path class="c" d="M264.52,24.77c.23,1.48,.43,2.96,.68,4.43,1.7,10.13,1.26,8.32-7.88,10.39-8.73,1.97-18.14,1.76-27.21-.67-3.71-1-5.49-2.63-5.08-6.51,.18-1.65,.17-3.33,.07-4.98-.22-3.82,1.79-4.59,5.02-3.85,9.87,2.24,19.83,1.57,29.78,.85,1.54,.12,3.07,.23,4.61,.35Z"/><path class="j" d="M1189.78,552.6c-.23,4.64-.03,9.28-.83,13.9-.44,2.49-1.42,3.38-3.95,3.12-3.78-.39-8.2,.92-11.23-1.26-3.51-2.53-.03-6.71-.38-10.19-.62-6.23-.25-12.55-2.27-18.65-.67-2.03-.03-3.88,2.65-4.37,3.25-.59,6.48-1.28,9.61-2.5,2.78-1.09,4.32,.47,5.11,3.13,1.65,5.53,1.12,11.2,1.28,16.82Z"/><path class="q" d="M712.03,24.29c-.83,.39-1.66,.77-2.48,1.16-2.34-2.87-3.49-6.36-4.84-9.71-3.58-8.88,.5-14.81,10.38-15.04,6.45-.15,12.91,.17,19.35-.12,3.11-.14,4.98,.74,5.87,3.67-.65,1.46-.57,2.81,.64,3.97,3.71,3.41,.04,3.52-1.92,3.93-8.26,1.75-16.2,4.22-23.3,8.96-1.37,.91-2.81,1.73-3.7,3.18Z"/><path class="c" d="M1013.79,321.6c-.12,7.16-.47,7.18-7.26,8.72-9.49,2.15-18.83,.81-28.19-.43-4.11-.55-6.82-2.53-5.34-7.42,.47-1.57,.48-3.27,.72-4.91,.33-2.2,1.41-3.21,3.78-2.62,9.68,2.4,19.44,1.78,29.16,.37,7.03-1.02,7.25-.95,7.13,6.31Z"/><path class="d" d="M589.64,603.95c-1.73,7.55-5.21,13.2-9.32,18.42-3.17,4.02-6.92,7.57-10.36,11.38-1.74,1.93-3.24,2.08-5.5,.46-8.18-5.83-8.16-5.67-1.92-13.18,4.56-5.49,8.39-11.5,11.79-17.77,4.89-9.02,3.25-9.22,12.5-2.7,1.48,1.04,3.23,1.97,2.8,3.4Z"/><path class="l" d="M1060.81,22.7c10.05,2.69,20.16,1.23,30.17,.03,4.11-.49,4.71,.61,4.64,4.29-.19,10.17-.35,10.32-10.71,11.63-8.55,1.08-16.88,.14-25.25-1.46-3.37-.64-5.04-1.86-4.46-5.57,.41-2.61,.25-5.31,.34-7.96,1.75-.32,3.51-.63,5.26-.95Z"/><path class="g" d="M1344.76,184c0,.66,.02,1.33,0,1.99-.58,13.55-.57,13.49-14.11,12.16-2.2-.22-2.87-.95-2.63-3.06,1.07-9.29,.86-18.55-1.31-27.68-.6-2.52,.29-3.33,2.72-3.24,3.04,.11,6-.66,8.67-1.94,3.52-1.69,4.74-.14,5.53,2.99,1.56,6.2,1.42,12.48,1.14,18.78Z"/><path class="i" d="M391.11,10.92c-.32-1.71,.84-2.55,1.9-3.32,1.61-1.17,3.45-2.05,4.96-3.33,2.88-2.45,4.36-2.09,6.14,1.5,4.74,9.53,10.19,18.68,17.86,26.26,1.79,1.77,1.45,2.73-.36,4.31-8.56,7.45-8.47,7.49-16.16-1.22-4.75-5.38-9.25-10.91-12-17.64-.88-2.15-1.56-4.37-2.33-6.56Z"/><path class="d" d="M157.38,559.46c-5,.42-9.69-.75-14.43-1.64-3.46-.65-5.01-2.31-4.96-6.1,.13-9.18-.07-9,8.79-8.05,8.77,.94,17.62,1.28,26.36-.27,3.58-.64,4.66,.61,5.07,3.89,1.16,9.14,1.1,9.27-8.08,10.81-4.27,.72-8.5,1.6-12.75,1.35Z"/><path class="g" d="M1001.66,199.44c-2.9,.67-3.82-.15-3.97-2.03-.79-9.94-1.75-19.89,0-29.8,.95-5.36,2.1-5.99,7-3.96,2.33,.96,4.63,1.74,7.09,1.57,3.13-.21,3.64,1.02,2.96,3.84-2.03,8.39-2.19,16.93-1.18,25.45,.4,3.36-.19,4.93-3.96,4.66-2.96-.21-5.96,.19-7.94,.28Z"/><path class="g" d="M919.36,.93c3.22,2.21,6.56,4.13,9.43,6.59,2.14,1.83,.02,4.09-.62,5.96-3.59,10.54-10.8,18.54-18.7,26.03-1.61,1.53-3.08,1.39-4.88,.22-8.12-5.29-8.3-5.85-2.04-13.19,5.87-6.88,10.31-14.63,14.37-22.65,.58-1.15,.86-2.49,2.44-2.96Z"/><path class="h" d="M1110.7,47.6c4.64-3.18,9.4-6.19,13.86-9.6,2.29-1.76,3.42-2.15,4.44,.99,1.39,4.32,4.25,7.45,8.57,9.02,2.33,.85,2.15,1.83,.79,3.55-2.19,2.78-5,4.79-7.81,6.81-5.55,3.99-11.79,6.7-18.04,9.34-7.11,3-7.34,2.85-11.6-4.07,.29-2.49,2.03-2.85,4.15-3.24,8.03-1.46,9.5-4.37,6.09-11.51-.19-.41-.29-.86-.43-1.3Z"/><path class="c" d="M520.12,200.24c-.82,6.81-2.39,12.88-9.4,16.61-4.23,2.25-8.33,4.67-12.87,6.27-4.01,1.41-7.5,.04-10.8-2.01-1.28-.79-2-1.93-1.12-3.77,2.12-4.48,4.13-9.01,7.57-12.68,.63-.67,1.2-2.13,2.26-1.57,8.27,4.38,12.09-3.57,17.76-6.33,1.65-.8,2.34-4.2,4.5-2.94,1.92,1.12,2.16,3.96,2.1,6.41Z"/><path class="o" d="M164.94,23.14c1.69-.07,3.3,.13,4.9,.73,8.03,3.01,8.64,5.9,2.39,11.72-1.46,1.36-3.01,2.62-4.38,4.06-2.31,2.42-4.09,4.88-7.85,1.26-1.93-1.86-5.48-.74-8.1,.41-3.48,1.52-6.91,3.19-10.25,4.99-2.48,1.33-3.24,.35-3.5-2.01-.63-5.67,3.88-13.67,9.19-16.24,5.58-2.7,11.4-4.5,17.61-4.92Z"/><path class="q" d="M1198.64,185.58c.34-6.41,2.35-11.81,8.09-15.59,5.84-3.84,11.34-8.18,18.94-7.54,6,.5,7.63,3.48,4.64,8.64-1.16,2.01-2.18,4.1-3.39,6.08-1.81,2.96-2.47,7.05-8.1,4.14-2.91-1.5-6.4,1.83-9.09,4.05-1.4,1.15-2.47,2.74-3.92,3.8-1.65,1.19-2.84,4.31-5.04,3.17-2.26-1.16-2.19-4.21-2.12-6.75Z"/><path class="o" d="M1155,21.95c9.23,1.46,18.88,1.98,24.84,10.94,.63,.95,1.4,1.98,1.56,3.06,.46,3.02,2.71,6.78,.13,8.92-2.23,1.85-4.95-1.44-7.44-2.45-5.27-2.16-10.42-5.73-16-.71-1.39,1.25-2.04-.17-2.8-.9-2.73-2.64-5.42-5.32-8.13-7.97-3.86-3.77-3.58-6.54,1.1-9.27,2.03-1.18,4.32-1.65,6.74-1.61Z"/><path class="g" d="M1122.42,488.86c8.07,2.2,18.37,2.08,23.56,12.26,1.36,2.68,2.44,5.41,2.26,8.56-.17,2.96-1.33,3.42-3.73,1.96-3.85-2.33-7.91-4.18-12.24-5.49-2.56-.78-5.33-.99-7,1.05-2.13,2.6-3.31,1.42-4.92-.22-2.55-2.61-4.92-5.48-7.81-7.66-4.08-3.07-2.5-5.49,.33-7.92,2.39-2.05,5.39-2.43,9.54-2.54Z"/><path class="l" d="M1000.05,602.01c.2,3.45-.71,4.23-3.93,2.22-3.93-2.46-8.08-4.66-12.78-5.41-2.15-.34-4.59-.86-6.13,.96-2.02,2.4-3.13,1.73-4.91-.27-2.53-2.84-5.3-5.51-8.23-7.93-3.13-2.57-2.36-4.6,.15-6.92,4.22-3.89,9.28-3.46,14.12-2.33,8.51,1.99,17.61,3.47,20.59,13.84,.27,.96,.68,1.88,.87,2.85,.19,.97,.17,1.98,.25,2.98Z"/><path class="h" d="M133.46,689.93c7.8,1.85,15.96,4.03,22.23,10.34,1.55,1.56,2.43,3.51,2.79,5.73,.58,3.67-.47,5.78-4.6,5.62-2.15-.08-4.32,.15-6.48,.3-3.88,.28-8.39,2.48-9.37-4.27-.28-1.91-2.82-3.17-4.96-3.82-3.01-.92-6.09-1.64-9.09-2.61-1.82-.58-4.77,.17-5.22-1.94-.45-2.12,1.9-3.76,3.66-4.97,3.16-2.17,6.58-3.89,11.04-4.39Z"/><path class="h" d="M39.38,153.3c-1.49,.14-2.99,.2-4.47,.43-2.4,.36-4.17,.79-4.48-2.94-.28-3.39-3.65-5.02-6.72-5.97-3.64-1.12-7.38-2.02-11.13-2.73-2.78-.53-2.78-1.7-1.44-3.68,3.14-4.66,11.71-7.81,17.28-6.31,5.49,1.47,10.82,3.35,15.46,6.72,1.59,1.15,3.09,2.55,4.3,4.09,1.95,2.48,2.82,5.47,1.47,8.42-1.24,2.7-4.14,1.33-6.29,1.73-1.28,.24-2.65,.04-3.98,.04v.22Z"/><path class="k" d="M1151.99,156.49c1.6-6.34,3.28-12.71,10.7-15.29,6.12-2.12,12.12-4.6,18.83-3.65,1.82,.26,3.57,.65,5.12,1.74,4,2.82,4.21,4.77,.77,8.26-1.86,1.89-3.9,3.6-5.71,5.53-2.36,2.52-4.19,5.38-8.13,1.58-1.69-1.63-4.85-.78-7.19,.17-3.37,1.38-6.71,2.86-9.93,4.57-3.31,1.76-5.14,1.7-4.47-2.93Z"/><path class="g" d="M994,752.67c1.17-6.68,3.4-12.88,10.97-15.42,6.11-2.05,12.07-4.75,18.81-3.59,2.37,.41,4.48,1.15,6.23,2.82,2.28,2.18,2.9,4.26,.05,6.62-2.42,2-4.69,4.23-6.81,6.54-2.26,2.46-3.92,4.7-7.49,1.18-2.33-2.3-5.77-.53-8.52,.49-3.09,1.15-6,2.79-9,4.2-1.15,.54-2.24,2.09-3.52,1.24-1.14-.76-.52-2.46-.72-4.06Z"/><path class="k" d="M306.86,199.29c.02-1.19,.03-2.37,.05-3.56,1.71-6.74,1.08-13.5,.08-20.23-1.11-7.53-1.16-7.51,5.82-9.43,1.12-.31,2.2-.77,3.3-1.13,4.78-1.58,5.93-.94,6.6,3.96,1.32,9.61,1.01,19.23,.02,28.85-.14,1.35-.17,2.94-2.08,2.68-4.58-.62-9.33,.79-13.79-1.14Z"/><path class="l" d="M1100.82,72.92c7.7,.34,14.22,2.77,20.39,6.09,3.95,2.13,7.44,10.87,6.8,15.3-.51,3.52-2.36,1.91-3.8,1.07-4.34-2.51-8.81-4.59-13.78-5.53-1.71-.32-3.63-.63-4.68,.76-2.64,3.5-4.33,1.55-6.34-.61-2.15-2.31-4.5-4.42-6.75-6.63-3.5-3.43-3.35-5.42,.72-8.22,2.4-1.65,5.08-2.41,7.45-2.23Z"/><path class="l" d="M966.22,362.73c-.13,1.53-.15,2.7-.35,3.84-.23,1.3-.41,2.8-1.72,3.41-1.61,.74-2.26-.96-3.19-1.75-2.79-2.35-5.39-4.93-8.3-7.1-2.23-1.66-5.1-3.8-7.69-2.33-3.81,2.17-4.73,.17-6.09-2.57-1.54-3.11-3.18-6.23-5.19-9.04-1.9-2.66-1.01-4.31,1.3-5.67,1.26-.74,2.71-1.35,4.14-1.56,8.56-1.23,24.33,9.41,26.36,17.74,.43,1.76,.53,3.59,.74,5.04Z"/><path class="l" d="M152.85,409.2c-.03-6.95,4.24-13.4,10.81-15.84,5.59-2.08,11.16-4.4,17.36-3.98,2.39,.16,4.63,.63,6.55,2.09,4.07,3.09,4.06,5.22,.14,8.6-1.76,1.51-3.36,3.22-5.11,4.76-2.43,2.14-4.14,6.91-8.45,1.83-1.13-1.34-3.78-.6-5.76-.06-4.05,1.11-7.75,2.92-11.35,5.06-3.59,2.14-4.17,1.72-4.19-2.46Z"/><path class="f" d="M59.72,239.85c-.15-6.36,2.48-11.05,7.77-14.66,4.42-3.01,8.7-6.13,13.96-7.5,3.01-.78,5.93-.63,8.7,.93,2.56,1.45,3.59,3.18,1.64,6.01-1.6,2.32-2.67,4.99-4.24,7.33-1.76,2.62-2.06,7.43-7.74,3.97-2.53-1.54-5.86,1.57-8.32,3.52-2.46,1.96-4.66,4.25-7.02,6.33-.82,.72-1.3,2.34-2.64,1.87-1.36-.47-1.56-2.03-1.73-3.34-.2-1.48-.25-2.98-.37-4.47Z"/><path class="k" d="M519.75,8.83c-11.07,2.73-22.26,5.21-30.94,13.43-1.62,1.53-2.34,.3-2.95-.91-1.26-2.49-3-4.78-3.3-7.68-2.4-3.63-.5-7.23,.07-10.85,1.12-2.14,3.15-2.13,5.13-2.13,8.56-.02,17.12,.19,25.67-.07,4.65-.14,3.91,4.11,5.83,6.14,1.46,.37,.96,1.23,.5,2.07Z"/><path class="j" d="M478.67,413.87c-2.21,.14-3.05,.11-3.87,.25-2.76,.46-4.06,.73-2.34-3.07,4.29-9.5,3.92-9.22,14.25-6.92,4.96,1.11,9.97,3.42,15.56,1.14,2.57-1.05,5.55,.51,5.59,4.38,.04,4.15-.43,8.27-2.19,11.99-1.55,3.26-3.78,5.12-7.91,2.53-2.3-1.44-4.31-3.08-6.13-4.91-4.03-4.02-8.61-6.1-12.96-5.4Z"/><path class="q" d="M1246.68,26.73c-1.13-3.86-.21-5.46,4.24-4.73,9.79,1.61,19.68,1.21,29.55,.66,1.62,.04,3.24,.08,4.86,.11,.21,1.97,.27,3.97,.67,5.91,.98,4.78-1,6.65-5.72,7.58-9.9,1.94-19.71,1.72-29.6,.43-1.04-2.16-.47-4.45-.47-6.67,0-2.53-1.12-3.52-3.53-3.28Z"/><path class="p" d="M1365.27,138.71c-3.37-4.94-6.53-9.18-11.31-11.79-2.74-1.5-2.2-4.22-1.45-6.18,1.66-4.32,2.77-8.75,3.9-13.19,.59-2.33,2.36-2.84,4.22-2.41,6.38,1.46,12.43,3.63,16.15,9.59,1.11,1.77,1.99,4.02-.31,5.24-6.85,3.64-8.72,10.06-10.11,16.86-.09,.43-.46,.81-1.09,1.87Z"/><path class="c" d="M488.13,40.96c.16-2.55,.89-5.8,5.1-5.7,7.22,.17,14.25-.75,21.12-2.81,2.31-.69,3.51-.16,3.99,2.15,.07,.32,.19,.64,.28,.96,3.7,13.11,2.12,11.74-9.72,14.46-3.06,.7-6.3,.58-9.39,1.17-7.44,1.4-11.27-1.67-11.38-10.22Z"/><path class="q" d="M688.83,112.8c3.35-.57,5.71-5.21,8.58-4.03,2.53,1.05,3.73,5.13,5.72,7.72,3.53,4.59,3.58,4.52-1.68,6.47-6.85,2.54-13.79,4.93-19.21,10.15-1.25,1.2-2.63,1.23-4.16,.97-3.28-3.44-7.29-6.17-9.98-10.18-.51-4.43,4.42-4.45,5.88-7.27,5.58,1.18,10.39-.65,14.86-3.82Z"/><path class="b" d="M651.52,126.3l.31-.23-.26-.29-.4,.39,.35,.13Z"/><path class="d" d="M1377.89,433.15c-.15,.24-.22,.51-.21,.8-2.85,3.38-3.75,10.01-10.82,6.44-.51-.26-1.58,.36-2.29,.75-3.31,1.82-6.68,3.59-8.84,6.89h0c-2.49,.43-3.38,5.06-5.75,3.54-2.73-1.76-1.99-5.66-1.84-8.79,.05-.98,.25-1.98,.56-2.91,3.46-10.38,12.61-13.67,21.58-17.07,3.54-1.34,7.01-.53,9.65,2.1,2.68,2.67-1.16,4.69-1.21,7.16h.02c-.61,.12-.88,.49-.84,1.1Z"/><path class="j" d="M150.91,87.88c2.48-5.64,6.72-9.65,7.69-15.3,.28-1.65,1.85-1.65,3.21-1.65,4.98,.01,9.95,.04,14.93,.05,1.76,0,3.48,.2,3.74,2.36,.84,6.95,.1,13.56-4.65,19.14-1.09,1.28-2.46,2.61-4.16,.86-5.63-5.77-12.91-5.47-20.76-5.46Z"/><path class="o" d="M1157.86,412.39c3.94,2.96,9.58,4,11.05,9.78,.2,.78,.93,1.45,1.03,2.23,.36,2.69,2.65,5.98,.08,7.92-2,1.51-4.39-1.36-6.57-2.34-5.41-2.41-10.64-5.99-16.71-1.6-.41,.29-1.64,.24-1.8-.05-3-5.16-10.42-4.98-12.9-10.71,2.08-2.41,4.16-4.82,6.25-7.23,3.85-.03,7.7-.06,11.55-.09,2.28,2.22,5.22,1.88,8.02,2.08Z"/><path class="q" d="M519.75,8.83c.46-.85,.97-1.71-.5-2.07,3.77-7.17,4.29-7.33,11.59-3.07,6.67,3.89,13.46,6.56,21.17,2.92,.86-.41,2.04-.83,2.77,.07,.73,.89,0,1.96-.46,2.75-1.67,2.88-.43,7.47-3.19,8.97-2.39,1.3-6.12,.2-9.25,.05-6.03-.29-11.93,.57-17.72,2.11-2.42,.65-3.26,0-3.57-2.38-.4-3.11-1.1-6.18-.86-9.35Z"/><path class="h" d="M1171.25,86.25c4.04-5.44,7.38-9.98,8.5-15.68,.35-1.77,1.88-1.6,3.2-1.61,5.16-.01,10.31,.05,15.47-.03,1.75-.03,2.87,.37,3.08,2.32,.74,6.83-.08,13.29-4.57,18.84-1.27,1.57-2.64,2.41-4.56,.61-5.67-5.3-12.34-6.86-21.12-4.45Z"/><path class="p" d="M750.06,193.06c-.15,.39-.27,.88-.5,1.32-4.06,7.86-8.71,15.33-16.16,20.4-4.32,2.94-7.12-1.28-9.74-3.47-2.37-1.98-2.85-5.3-.09-7.88,5.14-4.8,9.28-10.3,12.38-16.6,.36-.73,.76-1.6,1.4-1.99,1.66-1,12.68,6.14,12.71,8.21Z"/><path class="h" d="M1058.04,118.98c-.16-.84,.67-1.92,1.99-2.88,6.65-4.82,13.84-8.41,21.91-10.24,2.37-.54,3.89-.21,4.43,2.36,.07,.32,.27,.61,.37,.92,1.03,3.15,3.38,6.61,2.72,9.36-.79,3.31-5.68,1.93-8.5,3.41-3.36,1.77-6.83,3.34-10.23,5.05-2.52,1.26-4.58,4.19-7.99,1.86-3.19-2.18-4.11-5.44-4.72-9.84Z"/><path class="h" d="M262.54,121.02c-.53,2.93-1.15,5.79-3.44,8.04-2.08,2.04-4.01,2.47-6.58,.76-5.96-3.96-12.33-7.09-19.45-8.42-1.84-.35-2.67-1.2-1.84-3.09,.07-.15,.11-.31,.16-.47,4.7-13.4,1.77-12.77,15.8-7.98,4.72,1.61,8.97,4.23,13.01,7.17,1.4,1.01,2.71,1.97,2.33,3.99Z"/><path class="l" d="M1058.75,237.52c-12.07-3.76-19.09,2.59-26.04,9.37-3.81,3.71-6.71,2.97-8.75-1.86-.52-1.22-.94-2.5-1.27-3.78-2.73-10.54-2.6-10.73,7.98-11.45,5.86-.4,11.5-1.91,16.98-3.85,3.2-1.13,5.04-1.31,6.12,2.63,.71,2.61,2.65,4.88,4.98,8.94Z"/><path class="n" d="M247.48,90.33c.74-2.44,1.8-4.2,1.7-5.89-.39-6.68,3.62-7.2,8.71-6.93,6.82,.36,13.59-.23,20.1-2.47,2.42-.83,3.43,.16,3.8,2.32,.68,3.93,1.15,7.9,.75,11.87-.48,4.65-2.86,6.09-7.14,4.41-1.69-.66-3.27-1.61-4.87-2.47-6.1-3.27-12.3-4.87-18.98-1.6-.98,.48-2.21,.42-4.08,.75Z"/><path class="h" d="M676.28,72.63c-8.49-2.55-15.18-1.02-20.93,4.08-1.85,1.64-3.11,1.34-4.54-.32-4.86-5.63-5.23-12.35-4.65-19.28,.13-1.51,1.22-1.81,2.49-1.8,1.99,.01,4,.14,5.98,0,7.54-.53,14.85-1.16,16.34,9.36,.35,2.49,3.01,4.65,5.31,7.96Z"/><path class="p" d="M1313.16,46.83c-1.52,2.37-2.64,4-3.63,5.7-.78,1.35-1.36,2.99,.31,3.98,3.12,1.85,1.74,4.16,1.01,6.49-1.06,3.38-2.84,4.32-6.67,3.64-7.78-1.38-13.18-6.44-19.12-10.78-1.29-.94-1.46-2.19-.73-3.52,1.02-1.86,1.3-3.85,.64-5.79-1.45-4.26,1.1-4.3,3.78-3.41,7.76,2.6,15.68,3.98,24.4,3.68Z"/><path class="d" d="M705.24,552.79c-10.2-5.88-18.42-2.6-26.75,2.05-5.24,2.93-8.09,.89-8.44-5.16-.03-.5-.02-1-.02-1.49-.04-11.92,.13-12.09,11.62-10.01,5.75,1.04,11.55,1.21,17.37,.99,2.54-.09,3.95,.51,4.16,3.47,.2,2.9,1.12,5.74,2.06,10.16Z"/><path class="p" d="M975.42,140.16c.3-9.51-3.66-15.31-10.09-19.55-2.2-1.45-1.81-2.8-.64-4.49,4.03-5.8,9.78-8.66,16.56-9.87,1.98-.35,2.71,.74,3.19,2.29,1.66,5.36,3.29,10.73,4.93,16.09,.3,.98,.57,2.16-.61,2.58-5.83,2.08-8.48,7.52-13.35,12.94Z"/><path class="q" d="M1280.04,127.34c-3.09,1.82-5.69,1.24-8.64-.85-4.88-3.46-10.38-5.87-16.35-6.85-2.85-.47-3.69-1.79-2.5-4.42,.27-.6,.46-1.24,.67-1.87,3.45-9.99,3.48-10.08,13.64-6.3,3.38,1.26,6.66,2.9,9.79,4.71,7.89,4.58,7.84,4.66,5.18,13.09,.19,1.4-1.22,1.64-1.8,2.49Z"/><path class="h" d="M1234.9,131.58c-7.8-1.83-14.47-.29-20.12,4.98-1.92,1.79-3.15,1.08-4.51-.47-4.92-5.6-5.26-12.29-4.58-19.22,.11-1.11,.65-1.84,1.88-1.86,.66-.01,1.33-.1,1.99-.02,5.81,.67,13.28-2.7,17.06,1.45,3.49,3.83,4.87,10.2,8.29,15.15Z"/><path class="l" d="M299.25,235.2c-.85,3.52-.75,8.08-3.09,12.14-1.83,3.17-4.06,3.87-6.9,1.69-2.49-1.91-4.82-4.04-7.09-6.21-4.12-3.94-8.97-5.46-14.6-4.97-1.4,.12-3.3,.98-4.2-.38-1.05-1.58,1.05-2.49,1.68-3.74,.22-.44,.67-.81,.77-1.27,1.47-6.54,5.37-6.17,10.61-4.39,6.44,2.19,13.16,3.66,20.07,3.36,2.21-.1,3.06,.84,2.75,3.78Z"/><path class="p" d="M345.18,140.92c-4.89-5.04-7.96-10.33-13.54-12.96-1.01-.48-.42-1.76-.15-2.72,1.34-4.77,2.63-9.56,3.96-14.34,.75-2.71,1.9-4.1,5.29-3.24,5.47,1.39,10.33,3.63,13.99,7.92,1.89,2.21,3.29,4.86-.23,7.1-6.21,3.95-9.31,9.64-9.32,18.24Z"/><path class="p" d="M574.18,49.08c2.41-4.15,4.52-6.92,5.17-10.36,.38-1.97,1.89-2.06,3.48-1.66,8.52,2.12,16.99,4.45,25.94,3.11,2.06-.31,2.5,1.37,2.32,2.98-.47,4.1-.31,8.3-1.72,12.26-1.51,4.22-4.38,5.23-8.1,2.78-1.37-.9-2.54-2.12-3.76-3.24-6.34-5.8-13.75-8.13-23.33-5.87Z"/><path class="i" d="M1073.09,89.98c-10.07-5.93-18.18-2.58-26.38,1.83-5.76,3.09-8.34,1.31-8.64-5.17-.04-.83-.03-1.66,0-2.49,.26-10.81,.25-10.72,10.51-8.85,6.06,1.1,12.21,1.54,18.36,1.03,2.74-.23,3.83,.59,4.03,3.46,.21,2.9,1.15,5.75,2.12,10.2Z"/><path class="f" d="M940.16,63.68c3.46-2.51,5.1-6.45,7.57-9.72,1.03-1.36,1.7-3.01,3.79-1.46,2.72,2.02,6,2.66,9.01,3.33,.66,1.67-.5,2.11-1.26,2.55-7.36,4.33-9.88,11.17-10.28,19.23-.14,2.91,.2,6.43-3.17,7.75-3.12,1.22-5.69-.94-8.1-2.7-1.2-.87-2.35-1.83-3.45-2.82-4.85-4.33-4.81-4.31-.36-8.77,.98-.98,3.88-2.28-.03-3.35,2.51-.69,6.37,.69,6.26-4.05Z"/><path class="f" d="M1379.05,55.59c3.42-1.02,5.45-1.12,6.84-2.12,5.29-3.82,7.99-1.59,10.78,3.37,3.33,5.93,7.83,11.16,13.34,15.28,2.1,1.57,2,2.51,.24,4.19-2.89,2.76-5.81,5.47-9.35,7.36-4.35,2.32-6.8,1.11-7.85-3.75-.04-.16-.07-.33-.07-.49-.39-9.89-2.79-18.74-13.92-23.84Z"/><path class="f" d="M359.19,57.89c3.85-1.4,7.39-2.13,10.35-4.38,1.6-1.22,2.41,.14,3.12,1.25,4.76,7.42,9.72,14.67,16.9,20.04,1.47,1.1,1.24,1.98,.07,3.19-3.02,3.12-6.24,6-10.09,8.02-4.17,2.19-6.63,.93-7.56-3.65-.07-.32-.11-.66-.12-.99-.32-9.77-2.65-18.48-12.67-23.49Z"/><path class="f" d="M1282.8,236.26c1.91-2.7,2.63-4.03,3.65-5.06,1.99-2.01,1.26-6.32,4.22-6.77,2.53-.38,5.36,1.43,8.09,2.13,6.12,1.56,12.26,3.18,18.66,2.67,1.98-.16,2.76,.34,2.63,2.36-.3,4.5-.77,8.96-2.74,13.09-1.86,3.88-3.94,4.33-7.48,1.77-.4-.29-.82-.59-1.16-.95-6.6-7.11-13.92-12.45-25.87-9.25Z"/><path class="h" d="M940.16,63.68c.1,4.74-3.75,3.36-6.26,4.05-4.07,.59-7.55,2.51-10.57,5.13-1.96,1.69-3.31,1.6-4.94-.28-4.91-5.63-5.1-12.3-4.39-19.19,.12-1.19,.85-1.69,2.01-1.7,.66,0,1.32-.04,1.98-.04,4.96,.02,10.15-.86,14.83,.29,5.39,1.33,3.61,8.54,7.35,11.74Z"/><path class="l" d="M802.01,36.86c1.09-6.58,1.05-6.47,7.54-4.57,5.43,1.59,11.07,2.3,16.7,2,4.15-.22,5.8,1.56,6.06,5.34,.38,5.46-1.65,9.3-5.35,9.68-7.01,.71-13.89-.31-20.67-2.03-1.62-3.39-1.59-7.47-4.28-10.42Z"/><path class="f" d="M139.21,2.41c-2.21,4.08-4.42,8.17-6.78,12.53-3.87-3.81-7.57-2.33-11.17,.19-3.14,2.2-6.15,4.58-8.58,7.56-2.04,2.51-3.38,2.31-4.26-.82-2.53-8.93,2.59-22.69,15.15-21.28,5.43,.61,10.96,.28,16.44,.37-.27,.48-.53,.96-.8,1.44Z"/><path class="h" d="M795.81,100.92c6.83-7.18,9.71-15.81,13.21-24.62,3.68,2.68,6.72,5.75,10.67,7.5,1.94,.85,2.18,2.36,.83,4.02-4.05,4.96-6.53,10.68-8.26,16.79-.48,1.71-1.5,3.55-3.42,1.66-3.49-3.43-7.79-4.72-13.04-5.34Z"/><path class="q" d="M663.59,21.53c-1.92,4.76-5.23,8.32-5.34,13.15-.03,1.31-1.24,1.29-2.26,1.32-6.37,.17-12.48-1.16-18.49-3.17-2.82-.94-2.36-3.04-2.23-5.27,.49-8.51,.45-8.55,8.68-6.99,6.34,1.2,12.8,.73,19.64,.96Z"/><path class="q" d="M354.64,12.66c-.53-3.89-1.05-7.77-1.58-11.66,1.32-.11,2.64-.36,3.95-.31,4.95,.17,11.49-2.11,14.44,.79,3.57,3.51,2.35,10.61,5.32,15.54,.92,1.53-.56,1.94-1.7,2.25-5.35,1.5-10.84,1.69-16.27,.97-4.38-.58-2.95-4.93-4.16-7.58Z"/><path class="h" d="M1348.73,17.03c-2.54,4.5-3.87,8.5-3.07,12.95,.48,2.68-1.07,3.37-3.21,2.63-6.02-2.08-12.16-3.07-18.53-2.68-2.49,.16-3.16-1.12-2.79-3.41,.26-1.62,.39-3.3,.34-4.94-.24-7.51-.23-7.68,7.17-5.91,6.33,1.52,12.65,2.31,20.08,1.35Z"/><path class="h" d="M884.23,190.89c-8.66-.69-16.36,.91-23.91,3.34-2.69,.87-3.91,.82-3.53-2.66,.43-3.89-1.29-8.85,.56-11.52,2.05-2.96,7.47-.51,11.29-1.61,3.02-.87,6.05-1.7,9.06-2.6,1.89-.57,3.6-.48,3.33,1.97-.51,4.59,.77,8.74,3.21,13.08Z"/><path class="g" d="M728.43,43.46c-.59,.02-1.17,.04-1.76,.07-.65-1.36-1.29-2.71-1.93-4.07,2.39-1.61,1.22-3.53,.49-5.42-.54-2.24-1.09-4.48-1.85-7.62,8.65,3.53,17.58,2.85,26.38,3.57,1.56,.13,1.97,1.02,1,2.39-1.5,2.12-2.12,4.34-1.43,7.01,.65,2.52-1.07,3.41-3.3,3.95-4.2,1.01-8.26-.15-12.38-.41-1.76-.11-3.62-1.02-5.22,.53Z"/><path class="h" d="M1246.68,26.73c2.41-.23,3.53,.76,3.53,3.28,0,2.22-.57,4.51,.47,6.67,.06,1.58,.12,3.17,.18,4.76-1.28,1.32-2.91,1.29-4.57,1.23-5.46-.21-10.88-.26-16.08,1.94-1.97,.83-4.35,1.03-3.76-2.29,.82-4.66-.52-8.75-2.97-12.98,8.22,.81,15.86,.25,23.21-2.61Z"/><path class="o" d="M878.37,97.06c7.43-6.13,13.12-13.33,18.56-21.11,2.34,2.97,3.97,6.02,7.35,7.51,1.77,.78,1.76,2.65,.72,4.29-3.28,5.17-6.68,10.25-11.2,14.46-1.09,1.02-2.08,1.62-3.45,.53-3.41-2.72-7.7-3.67-11.98-5.68Z"/><path class="d" d="M298.72,369.64c-1.86,0-3.54,.17-5.18-.04-2.13-.28-3.96-1.11-3.3-3.86,.37-1.56,.06-3.04-.66-4.35-2.69-4.86-.13-5.17,3.94-5.21,6.32-.05,12.63-.61,18.69-2.73,1.06-.37,2.38-1.23,3.28-.42,1.39,1.26-.44,2.34-.72,3.53-.56,2.42-2.08,4.89-1.36,7.27,1.21,4.07-1.05,4.54-3.99,4.75-3.64,.26-7.17,1.67-10.7,1.06Z"/><path class="i" d="M291.4,49.11c-2.04,4.63-5.51,7.88-5.76,12.62-.07,1.3-1.35,1.23-2.36,1.07-5.56-.89-11.22-1.4-16.57-3.26-2.81-.98-5.32-2.43-2.88-6.14,.84-1.28,.91-2.94,.39-4.35-1.95-5.27,1.47-4.4,4.14-3.39,7.27,2.76,14.8,3.41,23.04,3.45Z"/><path class="f" d="M1212.01,1.79c-1.61,.8-4.61,.37-1.93,3.93,2.86,3.79,3.28,8.61,2.45,13.34-.25,1.41-.13,3.37-1.63,3.95-1.62,.62-2.54-1.19-3.52-2.18-2.8-2.85-5.78-5.49-9.16-7.62-2.58-1.63-5.32-2.94-8.26-.61-1.45,1.14-2.27,.63-3.02-.91-1.73-3.51-3.61-6.95-5.63-10.83,4.57,0,8.67,0,12.76,0,2.38,3.66,9.92,5.62,12.37,2.68,1.81-2.17,3.53-1.78,5.56-1.74Z"/><path class="h" d="M714.71,157.06c-2.78,4.23-5.01,7.88-5.37,12.25-.13,1.54-1.03,1.88-2.38,1.74-5.91-.63-11.92-.75-17.6-2.77-1.97-.7-4.27-1.47-2.43-4.58,.92-1.55,.87-3.58,.3-5.34-1.09-3.35-.56-4.41,3.27-3.41,7.64,1.99,15.5,2.69,24.21,2.12Z"/><path class="n" d="M1384.03,.91c2.99,0,6.44-.93,8.82,.27,2.26,1.14,1.48,5.04,2.37,7.66,2.87,8.42,2.76,8.46-6.26,9.26q-11.11,.99-13.52-9.61-1.78-7.82,6.09-7.82c.83,0,1.66,0,2.5,0v.25Z"/><path class="l" d="M447.59,246.44c-2.65,4.63-5.58,8.12-5.56,12.82,0,1.53-1.37,1.74-2.57,1.59-5.89-.73-11.92-.55-17.57-2.81-2.22-.89-3.9-1.78-2.47-4.69,.54-1.11,.8-2.73,.41-3.86-1.93-5.62,.77-5.51,4.95-4.51,7.21,1.71,14.57,2.26,22.82,1.46Z"/><path class="p" d="M557.92,674.43c8.31-.27,15.75-1.69,23.04-3.9,3.39-1.02,5.13-.56,4.35,3.5-.21,1.09-.31,2.53,.23,3.39,2.94,4.75-.08,6.25-3.84,7.18-5.29,1.31-11.01,4.07-15.96,2.66-5.1-1.45-2.99-9.55-7.82-12.83Z"/><path class="g" d="M327.99,44.19c-1.29,5-3.26,9.02-2.21,13.46,.39,1.63-.55,2.07-1.84,2.24-6.1,.8-12.19,1.9-18.37,1.25-2.42-.25-4.23-1.1-2.9-4.2,.52-1.23,.29-2.73-.5-3.85-3.45-4.82-1.11-5.5,3.45-5.29,7.36,.34,14.55-.94,22.39-3.61Z"/><path class="n" d="M868.51,141.19c1.27-1.91,.43-3.72-.03-5.69-1.11-4.77,1.23-8.35,5.53-8.95,1.96-.07,3.93-.13,5.89-.2,1.98,.22,3.69-.54,5.35-1.49,1.06-.46,2.09-.98,3.18-1.37,2.9-1.04,4.73-1.02,4.31,3.1-.49,4.76-.19,4.86,3.37,11.96-4.53,0-8.71,0-12.89,0-2.42-.01-4.67,.69-6.86,1.63-.65,.14-1.31,.29-1.96,.43-1.46-.3-2.81-.13-3.89,1.02-.78,.4-1.57,.79-1.99-.44Z"/><path class="g" d="M1349.03,41.85c-1.31,5.25-3.14,9.42-2.36,14.01,.26,1.53-1.25,1.79-2.39,1.96-5.77,.85-11.56,1.56-17.4,1.1-2.52-.2-4.54-.85-3.29-4.39,1.02-2.88-1.64-5.22-2.34-8.55,9.14-.6,18.32-.12,27.78-4.12Z"/><path class="h" d="M867.61,75.54c-8.17-2.63-16.04-3.06-23.95-2.66-3.58,.18-4.08-1.06-2.38-3.93,.77-1.31,1.34-2.89,.86-4.29-1.6-4.64,1.5-4.89,4.6-5.19,1.31-.13,2.65-.18,3.97-.08,3.96,.29,8.05,.12,11.83,1.13,5.35,1.42,.85,7.01,3.46,9.98,.96,1.08,.99,2.98,1.61,5.04Z"/><path class="g" d="M488.4,472.25c9.53,3.67,18.66,3.58,28.06,4.07-1.36,3.58-3.18,6.63-2.21,10.32,.46,1.74-1.26,2.17-2.54,2.37-6.51,1.04-12.9-.26-19.3-1.11-1.18-.16-1.71-.98-1.5-2.13,.82-4.44-.84-8.48-2.5-13.52Z"/><path class="p" d="M1040.85,46.57c4.19,1.06,7.7-1.49,11.55-2.24,3.17-.62,5.55-.97,3.96,3.51-.48,1.35-.22,2.66,.47,3.83,2.25,3.88,.55,5.64-3.22,6.83-4.94,1.56-10,2.27-15.09,2.96-2.13,.29-3.54,.15-4.21-2.68-.86-3.6-2.76-6.95-4.2-10.41,3.69,.03,7.54,1.01,10.75-1.79Z"/><path class="g" d="M78.79,14.09c-2.25-1.43-3.28,.78-4.77,1.6-1.42,.27-2.55,1.78-4.22,.97,.15-2.08,.29-4.15,.44-6.23-.06-3.91,5.13-5.4,4.41-9.61h33.1c-3.24,3.34-6.02,6.2-8.81,9.07-.37,.34-.73,.67-1.09,1.01-4.91,.15-9.87-1.16-14.72,.5-1.31-.13-2.21,.69-3.19,1.34-.81,.08-1.14,.58-1.15,1.35Z"/><path class="f" d="M42.38,86.27c7.05-6.63,14.43-12.26,19.15-21.15,2.09,4.71,3.03,9.27,6.97,12.01,1.35,.94,.53,1.86-.33,2.85-3.91,4.55-8.11,8.79-12.96,12.33-2.02,1.47-3.82,1.95-5.13-1-1.32-2.98-4.54-3.59-7.7-5.05Z"/><path class="f" d="M264.52,24.77c-1.54-.12-3.08-.23-4.61-.35-1.11-1.88-1.67-3.93-1.93-6.09-.39-3.11-.8-6.21-1.28-9.3-.45-2.96-2.41-5.28-3.99-7.87,7.15-1.44,13.01-.92,16.93,5.83,1.27,2.19,3.68,3.73,5.56,5.56,.4,1.79-.16,3.41-.94,4.98-2.99,2.76-6,5.49-9.74,7.24Z"/><path class="h" d="M870.14,12.29c-8.61-.92-16.17,.69-23.6,2.99-3.03,.94-4.84,.96-3.99-3.07,.34-1.6,.27-3.31,.21-4.97-.23-6.56-.25-6.56,6.52-6.56,1.33,0,2.66-.03,3.99,0,4.15,.06,9.15-1.25,12.19,.62,2.6,1.61,1.97,7.19,4.68,10.99Z"/><path class="o" d="M802.01,36.86c2.7,2.95,2.66,7.03,4.28,10.42,3.36,5.46,3.18,5.86-3.15,9.25-3.35,1.8-6.46,4.08-9.92,5.62-2.56,1.14-5.64,1.83-6.28-2.61-.09-.6-.53-1.35-1.04-1.66-6.04-3.73-2.84-5.63,1.32-7.73,3.22-1.63,6.2-3.74,9.3-5.62,2.92-1.78,5.13-4.06,5.49-7.67Z"/><path class="f" d="M1060.81,22.7c-1.75,.32-3.51,.63-5.26,.95-3.34-2.71-6.68-5.41-10.01-8.14-1.97-1.61-2.98-3.04,.13-4.75,1.69-.93,3.38-2.38,4.35-4.02,3.9-6.58,9.87-6.82,17.4-5.65-5.8,6.35-3.01,14.79-6.62,21.6Z"/><path class="i" d="M506.83,100.68c-.15-.64-.29-1.27-.44-1.91-.1-2.67-.57-5.13-3.52-6.17q-4.86-5.25,.86-9.19c1.22-.84,2.38-1.77,3.56-2.66,4.73-3.59,4.98-3.67,6.53,1.83,1.13,4.02,3.35,7.5,4.7,11.38,.03,.65-.03,1.33,.12,1.96,.74,3.19,3.26,7.01-3.19,7.23-.99,.03-1.9,2.07-2.85,3.18l-.15,.27c-3.58-.35-3.08-4.57-5.62-5.91Z"/><path class="f" d="M1285.33,22.77c-1.62-.04-3.24-.07-4.86-.11-2.12-6.48-1.05-13.64-4.25-19.9-.36-.7-.64-1.92,.53-1.92,3.6,0,7.75-1.52,10.68,.7,3.51,2.66,6.16,6.48,9.73,9.24,1.58,1.22,.48,2.28-.51,3.27-2.94,2.96-6.01,5.76-9.69,7.79-.54,.31-1.08,.62-1.62,.94Z"/><path class="m" d="M1270.98,74.71c9.11,1.42,18.2,1.12,26.96-1.7,3.83-1.23,4.82,.05,5.15,3.25,.38,3.63,.99,7.25,.52,10.91-.62,4.77-2.75,6.08-7.17,4.42-.62-.23-1.22-.53-1.8-.85-8.1-4.5-16.33-7.72-25.67-1.72-.37-4.97,3.06-8.69,1.08-12.8l-.1-.07c.92-.12,1.46-.51,1.04-1.54v.08Zm30.5,5.06c-1.09-2.33-2.69-3.05-5.1-3.33-6.99-.82-13.41,2.99-20.36,2.15-1.33-.16-2.13,.76-2.07,2.19,.07,1.52,1.11,1.95,2.38,1.89,6.78-.33,12.56,2.46,18.34,5.51,1.59,.84,4.08,1.48,5.08-1.03,.94-2.37-.58-5.34,1.74-7.37Z"/><path class="c" d="M250.83,448.06c.16,.19,.37,.29,.63,.29-3.09,3.89-8.67,3.29-12.11,6.63-.22,.21-1.9-.59-2.46-1.28-3.4-4.22-6.78-8.46-9.93-12.87-.98-1.37-1.96-3.53,.61-4.57,3.1-1.25,4.34-4.33,6.71-6.49,2.66,3.33,5.23,6.54,7.79,9.75,2.56,3.21,5.28,6.26,8.76,8.54Z"/><path class="o" d="M1082.88,575.48c-6.41,5.88-13.2,11.37-18.81,18.8-2.28-3.9-2.82-8.27-6.18-10.99-1.45-1.18-.38-2.44,.49-3.42,1.21-1.36,2.53-2.63,3.84-3.9q9.8-9.5,20.65-.5Z"/><path class="o" d="M442.12,98.1c-4.24,2.17-9.06,2.29-12.26,5.83-.85,.94-1.87,.44-2.56-.38-3.83-4.54-8.12-8.72-10.92-14.05-1.25-2.38-1.53-4.47,1.95-5.12,.45-.08,.86-.48,1.24-.79,5.29-4.41,5.32-4.44,9.29,1.06,3.69,5.1,7.81,9.79,13.26,13.46Z"/><path class="h" d="M477.66,14.58c.05,3.1-1.93,2.34-3.68,1.9-5.15-1.29-10.22-2.99-15.63-2.81-3.23-.55-4.4-2.49-3.89-5.65,.37-2.32,.4-4.64-.84-6.78,3.97-1.14,8-.43,12.01-.41,1.99,1.3,4.34,1.67,6.53,1.61,4.73-.12,5.63,1.88,4.48,6.08-.53,1.95-.61,4.26,1.02,6.06Z"/><path class="c" d="M1179.31,.65c-4.67,4.47-9.52,5.5-13.86,6.91-6.22,2.02-12.78,3.06-19.47,2.88-6.3-.17-2.97-5.61-4.49-8.33-.94-1.68,2.62-1.39,4.13-1.41,10.75-.12,21.51-.06,33.69-.06Z"/><path class="m" d="M436.26,192.33c2.37-4.31,3.63-8.5,3.19-13.08-.26-2.72,1.37-3.16,3.49-2.39,6.15,2.24,12.39,3.79,19.01,3.37,1.77-.11,2.28,.98,2.14,2.57-.13,1.49-.28,2.98-.31,4.48-.23,9.07-.24,9.14-8.81,6.79-5.98-1.64-12.03-2.35-18.7-1.74Zm24.41-4.75c0-3.2-.64-2.26-3.24-4.04-3.26-2.23-7.36,1.09-10.18-2.57-.55-.71-5.33-1.26-4.75,3.42,.42,3.39,4.39,6.16,8.25,4.91,1.35-.44,2.99-1.25,3.38,.2,.76,2.78,2.37,3.46,4.74,2.88,2.9-.71,1.34-3.27,1.8-4.79Z"/><path class="p" d="M616.12,247.07c-.26,5.72-3.86,8.38-9.43,7.33-2.66-.5-5.09-1.48-7.57-2.42-7.61-2.87-8.32-5.53-3.19-11.75,.92-1.11,2.16-2.06,3.44-1.19,4.63,3.12,10.09,3.81,15.22,5.44,1.51,.48,1.73,1.31,1.53,2.59Z"/><path class="d" d="M198.77,194.37c-1.99,1.68-3.86,3.52-5.99,5-3.22,2.23-4.41-1.29-4.88-2.78-.85-2.68-2.05-5.21-2.94-7.86-2.37-7.07-2.27-7.87,4.34-11.29,7.53-3.9,14.85-8.4,23.48-9.64,1.63-.23,3.25-.44,4.88-.65,3.14-.41,4.28,.64,3.17,3.88-1.05,3.07-.25,6.23,.09,9.35l-.25,.29c-2.7-.7-3.96-2.5-3.51-5.19,.67-3.93-.96-5.79-4.61-4.95-5.76,1.32-10.09,6.44-16.46,6.18-.33-.01-.94,.59-.98,.95-.29,2.79-2.45,2.34-4.31,2.96-2.67,.89-5.37,2.43-2.83,6.1,.44,.64,.68,1.48,.8,2.27q1.18,7.89,8.39,5.47c.46-.16,.98-.17,1.47-.24l.14,.16Z"/><path class="n" d="M966.64,6.43c-.16,4.09-2.97,5.8-6.29,7.22-4.11,1.75-8.37,1.21-12.61,1.1-1.59-.04-1.55-1.44-1.77-2.54q2.17-11.55,13.73-11.54c.82,0,1.66,.11,2.47-.01,5.04-.79,6.09,1.45,4.47,5.78Z"/><path class="m" d="M1071.09,552.73c3.19-5.56,6.85-9.92,7.87-15.59,.28-1.57,1.58-1.9,3.05-1.87,5.3,.1,10.6,.14,15.9,.21,1.59,.02,3.08,.31,3.19,2.31,.35,6.72,.08,13.32-4.75,18.69-.97,1.08-2.14,3.11-4.04,1.31-5.86-5.59-12.69-7.41-21.22-5.05Zm17.98-14.74c-1.5,0-3-.02-4.49,0-3.33,.06-7.9,7.96-6.31,10.86,.59,1.07,1.64,1.38,2.54,.98,3.63-1.61,6.21,.37,8.58,2.52,2.04,1.86,4.39,1.66,6.3,.78,1.94-.9,3.49-11.54,2.17-13.66-1.79-2.88-4.84-.98-7.28-1.48-.48-.1-1-.01-1.49,0Z"/><path class="g" d="M609.45,156.12c-3.83-1.31-4.27-5.28-5.08-8.56-.87-3.51,2.41-2.2,4.02-2.48,3.99-.68,7.64-2.23,11.13-4.16,2.2-1.21,3.92-2.09,4.49,1.46,.12,.76,.6,1.68,1.21,2.12,5.03,3.63,1.71,5.26-1.58,6.96-4.32,2.24-9.08,3.11-14.2,4.66Z"/><path class="m" d="M966.43,143.53c10.37,4.66,13.4,18.96,6.24,26.96-1.04,1.16-2.37,1.76-3.82,2.19-1.24,.36-2.67,1.21-3.7,.12-1-1.05,.45-2.06,.76-3.1,2.5-8.46,1.62-17.02,.53-26.16Z"/><path class="h" d="M1187.69,50.02c6.79-7.8,11.26-8.19,21.6-2.88,6.77,3.48,7.76,6.23,5.98,13.26-7.79-6.87-17.46-8.4-27.58-10.38Z"/><path class="o" d="M274.26,17.53c.78-1.57,1.34-3.19,.94-4.98,4.47,.9,7.38-2.55,10.47-4.5,2-1.26-1.39-4.29-1.35-6.99,4.07-.84,8.17-.2,12.24-.23,0,.54-.02,1.09-.03,1.63-3.67,.09-5.86,2.59-6.79,5.49-.78,2.47,3.26,1.23,3.95,3.25,.19,.57,.85,.97,1.3,1.45-2,4.13-4.51,7.58-9.75,7.44-.84-.07-1.68-.13-2.52-.19-2.46-.57-4.33,.57-6.07,2.1-4.42,.43-1.71-2.92-2.38-4.48Z"/><path class="q" d="M226.83,6.69c-.2,.13-.28,.32-.24,.56-6.41-2.64-11.55-.43-16.06,4.21-1.93,1.99-3.86,3.97-5.8,5.96-2,.81-2.84-.47-3.17-2.02-.98-4.49-.61-8.9,1.09-13.2,.87-2.19,2.75-1.49,4.26-1.51,7.31-.07,14.62-.02,21.93,0,.33,2.33-2.1,3.74-2,6Z"/><path class="j" d="M139.21,2.41c.27-.48,.53-.96,.8-1.44,1.61-.04,3.23-.08,4.84-.13,1.03,2.87,3.15,3.63,6.09,3.97,3.96,.47,7.93,1.47,11.69,2.79,4.59,1.62,9.03,1.97,14.39,.47-2.51-2.29-3.5-4.56-2.17-7.3,5.48,0,10.96-.02,16.43,0,.64,0,1.28,.29,2.36,.56-1.65,3.21-3.81,4.74-7.39,4.55-3.49-.19-7.37-1.02-8.42,4.27-.32,1.63-2.55,1.9-4.3,1.76-8.39-.66-16.8-1.81-24.7-4.44-3.15-1.05-6.16-3.8-9.63-5.08Z"/><path class="h" d="M1375,142.71c-.76,10.08-2.46,19.72,1.96,28.94-6.46,.42-8.9-1.09-10.35-8-2.67-12.72-1.4-16.41,8.4-20.94Z"/><path class="q" d="M1105.34,.66c2.32,0,4.69,.32,6.94-.06,5.38-.91,7.1,1.85,7.2,6.56,.02,1.16,.17,2.33,.04,3.47-.22,2.08,.2,4.84-2,5.74-2.22,.91-3.14-1.86-4.61-3.05-2.81-2.29-5.51-4.74-8.48-6.8-2.21-1.53-4.87-2.42-7.4-.54-1.69,1.26-2.61,.97-3.29-.91-.44-1.21-1.9-2.21-1.36-3.56,.64-1.59,2.32-.76,3.51-.81,3.14-.13,6.29-.04,9.43-.04Z"/><path class="i" d="M740.94,8.22c-1.21-1.17-1.29-2.51-.64-3.97,5.79-4.61,9.83-4.93,15.75-1.26,.84,.52,1.85,.8,2.64,1.39,1.8,1.35,6.85-.33,4.69,4.76-2.65,6.25-4.4,6.95-9.59,4.98-4.43-1.68-7.92-5.35-12.85-5.9Z"/><path class="h" d="M105.33,61.75c-1.44-7.87,.05-10.48,7.55-14.23,8.77-4.39,12.78-3.76,19.69,3.44-9.46,2.65-19.45,3.42-27.24,10.79Z"/><path class="p" d="M51.75,.68c-7.3,5.47-15.78,7.51-24.24,9.48-7.69,1.79-7.61,1.59-8.98-5.99-.5-2.74,.17-3.55,2.88-3.53,10.11,.09,20.23,.04,30.34,.04Z"/><path class="j" d="M435.52,28c-.24-2.91-.22-4.34,2.12-4.8,1.13-.23,2.17-1.43,3.03-2.39,3.32-3.67,4.61-3.38,7.43,.57,3.86,5.42,7.72,10.96,12.84,15.26,2.72,2.29,1.47,3.08-.61,4.02-3.24,1.47-6.69,2.37-9.44,4.93-.99,.92-2.51,.24-3.81-1.06-2.96-2.96-4.96-6.67-8.67-9.18-2.05-1.39-2.24-5.52-2.89-7.33Zm22.57,9.49c-.38-.54-.87-1.18-1.29-1.86-2.49-4.02-5.71-7.44-8.98-10.8-1.5-1.54-3.02-3.31-5.37-.98-2.24,2.22-5.63,4.72-3.26,7.82,2.52,3.29,4.31,7.17,7.77,9.92,2.42,1.92,4.03,.49,5.68-.16,1.98-.79,4.58-1.12,5.46-3.95Z"/><path class="m" d="M29.17,50.56c-5.76,.39-11.05-1.16-16.05-3.89,.46-5.5-.66-10.87-1.6-16.23-.42-2.39-.43-3.85,2.59-3.79,2.86,.06,5.63-.85,8.14-2.06,4.21-2.02,5.58-.06,6.34,3.69,1.49,7.4,1.17,14.83,.59,22.27Zm-2.17-2.64c0-5.06,.64-10.26-.38-15.11-.32-1.53,0-6.72-4.43-5.77-1.78,.38-3.49,1.44-5.48,1.78-2.63,.44-1.92,2.94-1.67,4.5,.6,3.72-1.89,7.9,1.55,11.18,.19,.18,.65,.19,.96,.14,3.5-.61,5.98,1.21,9.44,3.28Z"/><path class="j" d="M218.91,335.94c-2.93-1.99-5.25-4.35-5.76-8.11-.16-1.2-2.63-2.68,.66-3.03,2.64-.28,3.9-2.15,5.24-4.09,2.4-3.48,5.04-3.56,6.81,.24,1.62,3.49,4.34,6.04,6.65,8.82,2.36,2.82,4.22,6.28,8.62,8.13-4.21,2.02-7.47,3.79-10.69,5.6-4.65,2.61-9.55-.76-11.3-7.28,1.39,.22,2.69-.05,3.73,1.71,2.7,4.59,5.4,5.13,9.27,1.93,1.28-1.05,3.05-1.14,4.19-2.63-3.05-4.53-7.99-7.36-10.62-12.32-.48-.9-2.54-4.35-4.36-3.63-2.21,.88-4.03,3.22-5.54,5.28-1.3,1.78,1.23,2.71,1.81,4.14,.7,1.72,1.38,3.37,1.3,5.25Z"/><path class="p" d="M1094.66,166.43c-.61,.57-1.15,1.15-1.78,1.63-4.33,3.32-9.63,4.65-14.71,5.35-4.5,.62-4.05-4.38-4.87-7.3-.82-2.93,1.46-3.07,3.6-3.09,2.2-.02,4.11-1.08,6.13-1.8,5.86-2.08,7.9-1.34,10.98,3.73,.24,.4,.38,.85,.66,1.47Z"/><path class="d" d="M916.04,124.62c-1.86,2.29-3.3,4.54-5.22,6.26-1.44,1.29-2.79-.47-3.8-1.36-2.41-2.13-5.33-3.26-8.05-4.8-1.29-.73-5.19,.21-3.28-3.16,1.54-2.72,2.51-7.86,7.01-6.09,4.63,1.81,9.46,4.04,12.73,8.27,.39,.5,.73,1.04,.61,.88Z"/><path class="q" d="M1110.7,47.6c.14,.43,.23,.89,.43,1.3,3.41,7.14,1.95,10.05-6.09,11.51-2.12,.39-3.86,.75-4.15,3.24-3.6-1.85-6.52-4.19-6.9-8.64-.09-1.02-.42-2.46,.67-2.51,5.8-.25,10.43-4.16,16.03-4.9Z"/><path class="p" d="M655.96,442.12c-4.25-.44-4.52-3.82-5.19-6.79-.74-3.29,1.84-2.61,3.67-3.04,2.23-.53,4.59-1.05,6.53-2.19,3.89-2.29,6.29-3.05,9.14,2.09,1.83,3.3,1.04,4.11-1.16,5.52-3.97,2.54-8.47,3.56-13,4.41Z"/><path class="p" d="M900.58,350.27c-3.86,.12-4.14-3.72-4.89-6.74-.94-3.76,2.31-2.5,4.1-3,1.9-.53,4.01-.83,5.58-1.9,4.7-3.2,7.65-2.19,10.38,2.75,1.26,2.28,.99,3.42-.81,4.33-4.26,2.17-8.64,4.11-14.36,4.56Z"/><path class="m" d="M452.86,76.71c1.25-4.71,3.41-8.92,2.54-13.67-.23-1.26,1.11-1.47,2.09-1.58,6.1-.67,12.19-1.52,18.34-.57,2.42,.38,4.15,1.09,3.02,4.21-.41,1.13-.36,2.88,.26,3.85,3.31,5.18,.46,5.4-3.76,5.24-3.8-.15-7.65,.01-11.43,.43-3.56,.39-7.06,1.31-11.05,2.08Zm13.48-4.09c1.65,0,3.3,.05,4.95-.01,2.49-.09,5.51,.89,5.39-3.55-.11-3.86-1.21-6.44-5.54-6.46-2.48-.01-4.96,.16-7.42-.01-6.44-.44-5.95,4.88-6.12,8.36-.16,3.28,3.43,1.17,5.29,1.64,1.09,.27,2.3,.05,3.45,.05Z"/><path class="m" d="M354.11,144.71c-.87,10.2-2.34,19.84,1.92,29.06-5.84,.79-8.77-.84-10.24-6.77-2.92-11.78-2.54-17.53,8.33-22.29Zm-3.76,21.87c.65-5.59,.49-10.39,.15-15.36-5.09,2.82-5.41,10.76-.15,15.36Z"/><path class="o" d="M489.82,326.59c2.14-.39,4.24,.28,5.79,2.34,.96,1.29,.65,2.47-.44,3.53-2.07,2.01-4.08,5.43-6.94,4.61-3.72-1.07-6.36,0-9.2,1.67-1.14,.67-2.31,1.79-3.54,.67-1.09-.98-.6-2.49-.3-3.77,1.32-5.59,6.5-8.85,14.64-9.05Z"/><path class="q" d="M1223.32,.89c7.63-.06,15.26-.17,22.89-.15,1.21,0,3.59-.79,2.82,1.89-.46,1.63-1.44,3.54-3.92,2.37-3.42-1.6-6.44-.75-9.23,1.5-3.92,1.29-6.18,4.72-9.02,7.31-2.75,2.5-3.22,1.28-4.1-1.27-1.38-4.01,.3-7.77,.56-11.65Z"/><path class="c" d="M927.29,45.9c-1.99,0-3.97-.04-5.95,0-2.69,.06-4.5-.82-4.62-3.85-.11-2.79,1.15-4.58,3.91-4.7,3.96-.17,7.96-.28,11.88,.16,2.86,.32,5.55,1.69,5,5.47-.51,3.59-3.32,3.05-5.76,3.05-1.49,0-2.97-.15-4.46-.24v.1Z"/><path class="i" d="M1040.85,46.57c-3.22,2.8-7.06,1.82-10.75,1.79-1.01-3.11-3.07-5.65-5.73-7.2-3.65-2.13-3.1-4.03-.6-6.43,1.96,.59,2.37-1.8,3.9-2.02,6.73,2.39,10.84,7.29,13.18,13.85Z"/><path class="q" d="M854.19,98.38c-.12-6.28,9.2-14.26,15.14-13.14,2.34,.44,4.31,1.58,2.57,4.43-1.8,2.94-2.18,7.35-7.63,6.48-2.32-.37-3.71,2.53-5.62,3.79-1.03,.68-1.68,2.57-3.21,1.75-1.2-.65-1.17-2.27-1.25-3.31Z"/><path class="m" d="M560.01,199.14c6.6-.54,10.5,4.85,8.39,9.5-1.93,4.23-4.37,8.17-7.57,11.53-1.78,1.87-2.77,2.56-5.83-.01-5.77-4.86-2.89-7.61,.44-11.36,1.85-2.08,3.25-4.55,4.06-7.3,.3-1.02,.46-2.35,.51-2.36Zm6.44,7.21c.05-1.45-.97-2.02-2.07-2.47-1.47-.6-3.13,.1-3.39,1.2-.8,3.36-3.54,5.05-5.55,7.37-1.17,1.35-1.27,2.65,0,3.93,1.03,1.04,1.81,2.04,3.7,.76,2.08-1.42,7.43-8.47,7.3-10.78Z"/><path class="j" d="M825.04,.7c2.99,0,5.99-.1,8.98,.06,1.08,.06,2.87-.52,2.86,1.72,0,1.56-.6,2.79-2.16,2.82-5.24,.12-8.77,3.42-12.37,6.5-1.39,1.19-2.65,1.16-3.2-.29-1.1-2.92-3.33-4.9-5.19-7.19-1.83-2.27-1.57-3.6,1.6-3.62,3.16-.02,6.32,0,9.48,0Z"/><path class="h" d="M665.53,.69c-.78,1.96-1.43,3.3-1.86,4.7-2.01,6.58-2.01,6.63-8.37,3.18-4.15-2.25-8.59-3.53-13.17-4.44-1.26-.25-2.93-.37-2.65-2.25,.24-1.64,1.79-1.16,2.86-1.17,7.6-.04,15.21-.02,23.2-.02Z"/><path class="c" d="M174.86,.78c-1.34,2.73-.35,5.01,2.17,7.3-5.36,1.51-9.8,1.15-14.39-.47-3.77-1.33-7.73-2.33-11.69-2.79-2.94-.35-5.06-1.1-6.09-3.97,10-.02,20.01-.04,30.01-.06Z"/><path class="g" d="M791.2,133.81c-.14,2.11-.25,3.59-.33,5.07-.13,2.57-.13,5.25-3.94,4.69-2.9-.42-4.84-1.41-4.18-5.09,.42-2.38,.31-5.03-.28-7.38-.94-3.76,.21-5.2,3.97-5.94,2.91-.57,4.04,.08,4.27,2.84,.18,2.14,.36,4.27,.49,5.8Z"/><path class="g" d="M345.51,70.27c0,1.33-.04,2.66,0,3.98,.12,2.94-.5,4.53-4.19,4.11-3.03-.34-4.55-.57-3.87-4.23,.47-2.54-.12-5.28-.32-7.93-.31-4.17,1.63-6.14,5.79-6.03,1.87,.05,2.19,1.34,2.33,2.64,.27,2.47,.33,4.96,.48,7.44h-.24Z"/><path class="g" d="M358.97,308.79c0,1.49,.28,3.05-.07,4.45-.47,1.88,.69,5-3.45,4.53-3.26-.37-5.29-.89-4.61-4.91,.38-2.22,.23-4.72-.39-6.89-1.19-4.18,.71-5.27,4.37-6,2.54-.51,3.46,.36,3.79,2.42,.35,2.11,.4,4.27,.58,6.4h-.23Z"/><path class="g" d="M544.39,33.46c0,1.32-.06,2.65,.01,3.97,.18,3.13-.56,4.78-4.39,4.65-4.21-.15-3.71-2.31-3.56-5.17,.15-2.78-.24-5.61-.63-8.38-.28-2-.47-3.17,2.25-3.75,5.89-1.25,5.99-1.4,6.39,4.71,.08,1.32,.01,2.65,.01,3.97h-.09Z"/><path class="q" d="M903.51,283.62c-4.46,.98-8.04,2.61-11.04,4.79-3.83,2.78-3.02-2.89-5.31-2.31,.89-1.65-2.09-4.1,1.27-5.34,2.78-1.02,5.41-2.44,8.08-3.74,1.63-.79,2.92-.43,3.84,1.06,1.02,1.67,1.94,3.39,3.16,5.53Z"/><path class="m" d="M721.23,742.49c.34-.31,.69-.62,1.03-.92,.05,.17,.14,.32,.26,.44-.2,1.86,.33,3.13,2.28,3.85,2.24,.83,3.69,2.82,5.03,4.65,2.32,3.19,6.47,3.41,8.39,.06,4.01-7,9.72-13,12.28-20.84l2.32,.21c0,.29-.09,.53-.3,.72-.41,.9-.83,1.81-1.24,2.72-3.2,7.95-8.44,14.59-13.97,20.95-3.84,4.42-5.67,3.91-8.27-1.18-1.27-2.49-3.01-4.72-5.67-6.02-1.45-.71-3.15-1.18-3.66-3.05,.5-.53,1.01-1.06,1.52-1.6Z"/><path class="g" d="M1280.04,127.34c.57-.85,1.98-1.1,1.8-2.49,7.52-1.85,6.25-1.21,7.27,5.98,.27,1.93,.14,3.99-.2,5.92-.4,2.23,.78,5.46-3.93,5.1-3.94-.31-4.43-1.75-4.15-5.18,.25-3.07-.48-6.22-.78-9.33Z"/><path class="g" d="M714.31,596.46c0,1.49-.04,2.99,0,4.48,.1,2.72-.45,4.2-3.89,3.95-3.24-.23-4.49-1.03-4.03-4.38,.43-3.13,.07-6.3-.61-9.4-.37-1.68-.04-2.53,1.9-3.21,5.69-1.99,6.31-1.76,6.68,4.08,.09,1.49,.01,2.99,.01,4.48h-.07Z"/><path class="q" d="M584.7,62.69c-.28,.34-.46,.77-.69,.8-4.22,.55-7.19,4.08-11.16,4.91-3.46,.72-2.57-3.28-3.98-4.91-1.2-1.39-.74-2.67,1.24-3.34,2.97-1.01,6.1-1.75,8.57-3.88,1.07-.93,1.99-.26,2.51,.53,1.28,1.91,2.36,3.94,3.5,5.89Z"/><path class="g" d="M324.4,3.67c-1.73,4.46-4.71,5.59-9.25,3.99-3.67-1.29-7.56-1.96-11.36-2.9-2.42-.76-4.84-1.53-7.26-2.29,.01-.54,.02-1.09,.03-1.63,8.45-.05,16.9-.05,25.35-.18,2.33-.04,3.57,.42,2.48,3.02Z"/><path class="m" d="M634.47,139.49c3.65-2.75,7.23-5.61,10.98-8.21,6.57-4.57,6.8-4.47,11.09,1.97-1.92,1.87-3.14,1.87-4.18-1-.74-2.05-2.47-2.35-2.91-.99-.7,2.14-2.65,2.02-3.83,2.68-8.37,4.73-8.86,6.04-4.1,13.78,4.38-1.82,7.18-6.37,12.36-6.77-4.44,4.55-10.28,7.68-13.53,13.43l-.27-.12-.29,.02c.02-5.58-3.67-9.8-5.36-14.76l.03-.03Z"/><path class="p" d="M1269.96,76.16l.1,.07c-2.04-1.95-4.87-1.32-7.25-2.21-2.44-.91-3.99-2.32-3.96-4.98,.02-2.01,.56-3.56,3.25-3,3.06,.64,6.17,1.01,9.26,1.5,1.89,.3,2.1,1.02,.99,2.64-.87,1.28-2.13,2.65-1.37,4.52v-.08c-.98,.07-1.34,.58-1.03,1.54Z"/><path class="m" d="M1157.86,412.39c-2.8-.2-5.74,.14-8.02-2.08,1.16-.05,2.37-.34,3.46-.1,5.54,1.23,8.49-2.49,11.57-5.94,1.48-1.66,1.78-3.16-.86-4.1-.89-.32-1.73-.9-2.44-1.54q-5.62-5-11.35-4.15l-.22-.3c.57-.58,1.07-1.25,1.72-1.73,1.86-1.36,3.8-3.71,5.66-3.67,1.89,.04,1.77,3.49,2.94,5.26,1.88,2.85,4.21,5.12,7.49,6.19,2.39,.78,2.21,1.92,.81,3.55-3.04,3.56-6.72,6.3-10.76,8.6Z"/><path class="p" d="M1329.46,283.5c-2.1-.44-4.2-.91-6.31-1.32-3.02-.59-2.89-2.7-2.47-4.98,.44-2.36,1.93-2.64,4.05-2.4,2.81,.32,5.23,2.08,8.19,1.84,1.52-.12,2.02,1.02,1.23,2.37-1.12,1.9-.89,5.29-4.69,4.49Z"/><path class="p" d="M74.65,.82c.72,4.21-4.48,5.7-4.41,9.61-2.64-2.08-6.01-2.54-8.89-4.1-.71-1.18-2.74-1.72-2.04-3.54,.68-1.76,2.4-2.1,4.08-2.1,3.75,0,7.51,.08,11.26,.13Z"/><path class="g" d="M1322.87,.68c5.96,0,11.92-.11,17.88,.08,1.38,.04,4.25-1.58,4.01,1.48-.16,2.1-1.54,4.59-4.65,4.09-5.99-.96-11.78-2.66-17.24-5.65Z"/><path class="i" d="M752.83,729.95c-.77-.07-1.55-.14-2.33-.21,2.33-3.08,1.13-4.45-1.66-7.07-6.36-5.97-9-6.05-12.56,1.72-.39,.84-.96,1.26-1.73,1.58l-.34-.33c.74-2,1.51-3.99,2.21-6,2.2-6.3,2.26-6.43,7.93-3.04,3.08,1.84,6.01,3.95,8.48,6.69,2.15,2.38,2.46,4.45,0,6.67Z"/><path class="q" d="M895.93,.68c-3.59,3.51-7.94,4.72-11.96,6.55-2.61,1.19-2.68-2.65-3.65-4.41-1.18-2.14,.47-2.12,1.82-2.13,4.6-.03,9.19-.01,13.79-.01Z"/><path class="f" d="M340.7,10.35c-.53-2.32-1.05-4.64-1.58-6.96-.06-1.26-.52-2.76,1.62-2.71,1.96,.04,3.92,.08,5.88,.12,.62,1.85,3.67,2.17,3.02,4.82-.17,.34-.34,.67-.51,1.01-2.58,.7-4.2,2.86-6.37,4.19-.69-.16-1.37-.31-2.06-.47Z"/><path class="d" d="M220.92,180.38c4.31,5.43,4.01,6.27-2.74,7.39-5.34,.89-9.76,4.91-15.46,4.56l-.1-.12c1.3-2.16,3.33-2.9,5.59-3.97,3.8-1.8,7.94-1,11.57-2.7,.17,.05,.33,.11,.5,.16l-.38-.28c.04-1.62,1.32-3.03,.78-4.74l.25-.3Z"/><path class="d" d="M477.66,14.58c-1.64-1.8-1.56-4.1-1.02-6.06,1.15-4.21,.25-6.21-4.48-6.08-2.2,.06-4.54-.31-6.53-1.61,4.74,.59,9.84-1.23,14.18,2.29,.52,.42,1.86-.17,2.83-.29-.58,3.61-2.47,7.22-.07,10.85-2.24-2.96-3.7-1.74-4.9,.91Z"/><path class="m" d="M1135.13,.97c-2.19,2.68-2.06,6.75-5.55,6.52-3.33-.22-6.07-2.48-7.12-6.52h12.66Z"/><path class="o" d="M1026.76,.67c2.32,0,4.1,.09,5.88-.02,3.18-.2,3.95,1.26,2.47,3.8-.88,1.51-.54,4.29-2.42,4.42-1.97,.14-2.76-2.43-3.88-3.96-.74-1.01-1.13-2.28-2.05-4.24Z"/><path class="m" d="M1128.01,410.23c-3.41-5.33-3.42-5.38,2.32-6.54,4.91-.99,9.09-3.76,13.69-5.5l.2,.28c-2.29,4.25-5.96,5.74-10.65,5.83-3.41,.07-6,1.52-5.31,5.71l-.24,.22Z"/><path class="l" d="M512.6,106.32c.95-1.11,1.86-3.15,2.85-3.18,6.45-.23,3.94-4.04,3.19-7.23-.15-.63-.09-1.31-.12-1.96,3.06,1.7,3.78,5.23,6.9,7.75-4.77,1.72-8.8,3.18-12.82,4.63Z"/><path class="m" d="M1212.01,1.79c-2.03-.05-3.75-.43-5.56,1.74-2.46,2.94-10,.98-12.37-2.68,6.06-.03,12.12-.06,18.18-.07,.14,0,.36,.1,.41,.21,.32,.68-.26,.68-.65,.81Z"/><path class="o" d="M1304.88,1.45c3.3-1.18,6.05-.62,9.03-.7-.61,3.57-2.87,6.5-5.23,6.82-2.48,.34-1.81-3.99-3.8-6.13Z"/><path class="i" d="M722.26,741.57c3.98-5.31,7.97-10.62,11.95-15.94l.34,.33c-.25,4.76-4.21,7.4-6.51,10.94-1.3,2-1.6,5.72-5.52,5.11-.13-.13-.21-.27-.26-.44Z"/><path class="o" d="M688.83,1.45c-1.69,1.32-3.14,2.51-4.64,3.62-.83,.61-1.62,2.14-2.75,1.14-1.02-.91-1.98-2.36-2.11-3.66-.17-1.74,1.74-1.76,2.92-1.77,2.04-.02,4.18-.57,6.58,.67Z"/><path class="g" d="M453.62,1.24c1.24,2.14,1.2,4.46,.84,6.78-.5,3.17,.66,5.1,3.89,5.65-2.57,0-5.13,0-7.99,0,1.59-4.14,3.42-8.05,3.26-12.43Z"/><path class="m" d="M1138.29,410.39c-2.08,2.41-4.16,4.82-6.25,7.23-1.9-2.16-3.47-4.5-4.04-7.39l.24-.22c2.12,1.46,4.09,3.36,6.75,.61,.56-.59,2.17-.17,3.29-.22Z"/><path class="q" d="M590.41,.82c-.38,2.21-3.84,5.98-5.5,5.97q-2.72-6.33,5.5-5.97Z"/><path class="m" d="M81.92,380.29c-1.39,.93-2.79,1.86-4.18,2.79-1.95,.7-3.9,1.4-5.85,2.1-1.2-.15-2.72,.58-3.32-1.21,4.11-2.48,8.45-4.1,13.35-3.69Z"/><path class="m" d="M594.5,106.59c2.77,1.67,5.55,2.99,8.35,.07-.36,.52-.66,1.09-1.08,1.54-4.74,4.99-5.04,4.92-7.27-1.61Z"/><path class="l" d="M506.83,100.68c2.54,1.34,2.04,5.56,5.62,5.91-1.27,2.69-2.75,2.55-4.18,.2-1.13-1.85-1.49-3.95-1.44-6.11Z"/><path class="m" d="M100.95,368.57c-.63,.37-1.25,.74-1.88,1.11,.86-3.27-1.92-5.35-2.66-8.09,1.32,.63,2.57,1.51,3.96,1.85,3.42,.83,2.44,2.63,1.22,4.59-.31,.07-.52,.26-.65,.54Z"/><path class="m" d="M1144.01,398.19c1.64-1.87,3.85-2.88,5.99-4l.22,.3c-1.09,2.71-2.8,4.48-6.01,3.98l-.2-.28Z"/><path class="l" d="M502.87,92.59c2.95,1.04,3.43,3.5,3.52,6.17-1.63-1.8-3.26-3.6-3.52-6.17Z"/><path class="k" d="M876.35,140.18c2.19-.95,4.44-1.65,6.86-1.63-1.99,1.8-4.46,1.59-6.86,1.63Z"/><path class="m" d="M592.76,102.54c2.48,.51,1.52,2.51,1.72,4-1.48-.94-1.76-2.41-1.72-4Z"/><path class="d" d="M202.71,192.32c-.81,1.65-2.4,1.8-3.95,2.05l-.14-.16c.61-2.1,2.5-1.65,3.98-2.01l.1,.12Z"/><path class="k" d="M885.24,124.85c-1.65,.96-3.36,1.72-5.35,1.49,1.51-1.47,3.43-1.47,5.35-1.49Z"/><path class="i" d="M721.23,742.49c-.51,.54-1.02,1.07-1.52,1.6-.67,.73-.56,.01-.49-.31,.24-1.07,.93-1.51,2.01-1.28Z"/><path class="k" d="M870.5,141.63c1.08-1.15,2.43-1.31,3.89-1.02-1.09,1.12-2.37,1.52-3.89,1.02Z"/><path class="m" d="M603.52,106.21c1.26-.57,2.52-1.14,3.78-1.72-.99,1.17-2.37,1.47-3.78,1.72Z"/><path class="i" d="M751.28,733.39c.41-.91,.83-1.81,1.24-2.72,.22,1.2,.31,2.33-1.24,2.72Z"/><path class="j" d="M112.97,104.87c.62,.27,1.23,.54,1.85,.82,.01,.34,.12,.64,.32,.91-.19-.08-.39-.13-.6-.14-1.07,.01-1.55-.56-1.58-1.58Z"/><path class="b" d="M1377.89,433.15c-.04-.61,.24-.98,.84-1.09-.28,.36-.56,.73-.84,1.09Z"/><path class="j" d="M339.11,19.14c7.5,3.03,14.39,7.65,22.63,8.78,.49,.07,.96,.27,1.45,.36,7.78,1.35,7.83,1.37,5.4,8.87-.71,2.19-1.84,4.25-2.8,6.36-1.3,2.89-3.58,3.73-6.54,3.03-9.55-2.23-18.95-4.91-27.47-9.96-4.33-2.57-4.43-3.57-.74-6.76,2.9-2.5,4.24-5.87,5.63-9.25,1.13,.05,1.91-.49,2.44-1.45Z"/><path class="h" d="M308.76,18.69c5.66,.69,11.3,1.74,17.03,.91,.36,.3,.72,.61,1.08,.91-1.86,3.53-3.23,7.13-2.35,11.28,.62,2.92-.97,3.42-3.42,2.75-3.31-.9-6.63-1.77-9.95-2.65,.83-.32,1.98,.25,2.63-1.23-3.24,0-6.33-.02-9.43,0-1.7,.01-3.36,.03-3.7-2.21-.08-3.22-.15-6.43-.23-9.65,2.78-.04,5.56-.08,8.33-.12Z"/><path class="c" d="M339.11,19.14c-.53,.96-1.31,1.5-2.44,1.45-.43-2.02-1.22-3.17-3.66-2.31-1.3,.45-2.85,.16-4.29,.2-.86-3.02-3.28-1.42-5.07-1.72l.04,.03c-.99-1.87-.98-3.89-.91-5.92l.13-.15c1.59-.01,3.18-.02,4.76-.03,4.34-.11,8.68-.22,13.03-.33,.69,.15,1.37,.31,2.06,.46,1.77,4.08-.5,6.4-3.65,8.32Z"/><path class="m" d="M300.65,28.46c.33,2.24,1.99,2.22,3.7,2.21,3.09-.03,6.19,0,9.43,0-.64,1.48-1.8,.92-2.63,1.23-2.81,.03-5.61,.09-8.42,.08-2.59-.01-3.19-1.27-2.08-3.51Z"/><path class="m" d="M301.78,16.38c.65,.14,1.3,.28,1.94,.43,1.68,.63,3.36,1.25,5.04,1.88-2.78,.04-5.55,.08-8.33,.12-1.11-1.68-.1-2.17,1.35-2.42Z"/><path class="j" d="M323.65,16.76c1.78,.3,4.21-1.31,5.07,1.72-.62,.68-1.23,1.36-1.85,2.04-.36-.3-.72-.61-1.08-.91,.24-1.67-1.59-1.78-2.14-2.84Z"/><path class="e" d="M349.13,6.63c.17-.34,.34-.67,.51-1.01,.92,.88,.18,.94-.51,1.01Z"/><path class="j" d="M724.73,39.46c.64,1.36,1.29,2.72,1.93,4.07-4.63,3.11-8.19,7.06-9.41,12.92-9.77-5.84-18.72-12.29-29.94-13.7-2.14-.27-2.11-1.75-1.68-3.33,1.17-4.37,3.8-8.05,5.93-11.94,.86-1.56,2.84-2.3,4.83-1.68,10.12,3.15,20.25,6.3,28.34,13.66Z"/><path class="m" d="M754.14,77.76c-.1,.37-.2,.74-.31,1.11-5.19-1.48-10.47-2.17-15.77-.94-2.12,.49-3.01-.25-3.83-2-2.04-4.37-4.11-8.73-6.39-12.97-1.47-2.73-.7-4.3,1.89-5.54,4.69-2.24,9.42-4.28,14.81-3.58,3.69,.47,5.57,1.66,4.37,6.18-1.8,6.71,.1,12.82,5.22,17.75Zm-7.65-13.71h-.13c0-1.82,.23-3.68-.06-5.45-.3-1.82-1.39-3.67-3.52-3.19-3.57,.81-7.01,2.19-10.55,3.18-1.41,.4-2.36,1.48-1.67,2.42,2.55,3.45,2.09,8.03,4.61,11.42,1.42,1.9,9.06,3.48,11.61,2.04,3.09-1.76-.54-3.57-.33-5.45,.18-1.63,.04-3.31,.04-4.96Z"/><path class="c" d="M87.8,42.74c-.47,2.06-1.85,3.48-3.26,4.9-8.88,8.97-8.78,8.85-18.92,1.35-6.49-4.79-11.62-10.7-15.84-17.46-1.62-2.6-3-5.06,2.31-5.2,3.33-.09,6.05-2.42,8.06-5.27,1.61-2.28,3.05-3.1,5.22-.12,5.74,7.92,11.93,15.47,21,19.94,.74,.37,1.39,.91,1.41,1.86Z"/><path class="q" d="M83.13,11.4c4.86-1.66,9.81-.35,14.72-.5,.79,7.37-.43,14.49-2.82,21.42-1.48,4.29-4.8,5.37-10.08,3.74-4.12-1.27-5.53-3.76-3.91-7.85,2.16-5.42,1.56-11.19,2.09-16.81Z"/><path class="q" d="M196.79,96.5c-2.97,1.14-4.33,.22-3.91-3.02,.6-4.67,2.82-8.65,5.37-12.48,6.51-2.88,12.85-6.29,20.24-6.45,2.52-.06,5.01,.1,7.32,1.14,4.84,2.16,5.36,5.24,1.59,8.98-1.65,1.64-3.38,3.19-4.98,4.87-2.36,2.47-4.12,5.11-8.26,1.73-2.64-2.15-6.4-.06-9.51,1.08-2.8,1.02-5.6,2.08-7.85,4.15Z"/><path class="n" d="M668.09,123.89c-.48,.46-.95,.92-1.43,1.39-4.66,4.58-7.91,4.12-11.12-1.5-.82-1.44,.29-2.18,.97-2.97,3.06-3.53,5.91-7.18,7.49-11.65,.33-.95,.75-2.11,2.03-1.59,2.77,1.13,5.43,2.41,6.59,5.57,.43,1.16-1.34,3.23,1.35,3.48-1.47,2.82-6.4,2.85-5.89,7.27Z"/><path class="h" d="M653.88,140.95c-5.18,.4-7.98,4.95-12.36,6.77-4.76-7.75-4.27-9.05,4.1-13.78,1.18-.67,3.14-.54,3.83-2.68,.44-1.36,2.16-1.06,2.91,.99,1.04,2.88,2.26,2.87,4.18,1q3.96,3.19-1.74,6.4c-.64,.15-1,.52-.89,1.22l-.03,.08Z"/><path class="e" d="M651.52,126.3l-.35-.13,.4-.39,.26,.29-.31,.23Z"/><path class="m" d="M653.91,140.87c-.11-.7,.24-1.07,.89-1.22-.3,.41-.59,.82-.89,1.22Z"/><path class="h" d="M1144.21,398.47c3.21,.5,4.93-1.27,6.01-3.98q5.74-.87,11.35,4.15c.71,.63,1.56,1.22,2.44,1.54,2.63,.94,2.34,2.44,.86,4.1-3.08,3.45-6.03,7.16-11.57,5.94-1.09-.24-2.3,.05-3.46,.1-3.85,.03-7.7,.06-11.56,.09-1.13,.05-2.73-.36-3.29,.22-2.65,2.75-4.63,.85-6.75-.61-.69-4.18,1.9-5.64,5.31-5.71,4.69-.09,8.36-1.58,10.65-5.83Z"/><path class="h" d="M96.41,361.59c.75,2.74,3.52,4.82,2.66,8.09-4.87,4.91-10.82,8.06-17.15,10.61-4.9-.41-9.24,1.21-13.35,3.69-.93-.13-1.42-.74-1.73-1.56,.66-3.27-1.74-5.49-2.91-8.08-1.91-4.25-1.43-5.41,2.99-6.02,1.76-.24,3.79,.47,5.25-.97,4.36-4.29,10.49-5.94,14.92-10.15,1.65-1.56,2.78-1.12,4.08,1.16,.83,1.46,1.66,5.18,5.19,3.23h.04Z"/><path class="m" d="M96.37,361.59c-3.53,1.96-4.36-1.77-5.19-3.23-1.3-2.28-2.44-2.73-4.08-1.16-4.43,4.21-10.56,5.86-14.92,10.15-1.46,1.44-3.49,.73-5.25,.97-4.42,.6-4.9,1.77-2.99,6.02,1.17,2.6,3.57,4.81,2.91,8.08-3.22-3.27-4.89-7.46-6.86-11.48-.94-1.91-.8-3,1.63-3.37,10.08-1.55,18.22-7.06,25.84-13.32,2.95-2.42,4.17-2.26,5.4,1.38,.72,2.14,2.31,3.98,3.51,5.95Z"/><path class="n" d="M1301.5,79.77c-2.32,2.03-.79,5.01-1.74,7.37-1,2.5-3.49,1.87-5.08,1.03-5.78-3.05-11.57-5.84-18.34-5.51-1.27,.06-2.31-.37-2.38-1.89-.07-1.43,.73-2.35,2.07-2.19,6.95,.83,13.38-2.97,20.36-2.15,2.41,.28,4.01,.99,5.1,3.33Z"/><path class="e" d="M1269.96,76.16c-.31-.96,.04-1.47,1.04-1.54,.42,1.03-.12,1.41-1.04,1.54Z"/><path class="c" d="M882.1,32.51c-3.57,2.27-5.47,6.07-8.28,9.03-.97,1.02-2.01,2.76-3.66,1.29-3.19-2.84-7.54-3.28-11.18-5.57,5.94-5.09,10.96-10.76,15.18-17.13,1.49-2.25,2.84-2.84,4.19,.1,.27,.59,.62,1.37,1.14,1.6,5.41,2.47,4.86,6.35,2.62,10.66h0Z"/><path class="c" d="M112.97,104.87c.03,1.02,.51,1.6,1.58,1.58,.11,.66,.23,1.31,.34,1.97-2.76-.09-4.77,1-5.77,3.68-.63,.18-1.26,.37-1.89,.55-1-.06-1.93,0-2.22,1.22-9.41,8.39-10.03,8.3-17.5-1.95-1.07-1.47-.88-2.24,.66-3.06,6.37-3.42,13.07-6.32,18.42-11.4,1.66-1.58,2.03-.09,2.68,1.19,1.09,2.15,1.27,4.87,3.72,6.22Z"/><path class="j" d="M109.11,112.11c1-2.68,3.01-3.77,5.77-3.68-.73,3.1-3.91,2.37-5.77,3.68Z"/><path class="j" d="M105,113.88c.29-1.22,1.22-1.28,2.22-1.22-.74,.41-1.48,.81-2.22,1.22Z"/><path class="h" d="M460.66,187.57c-.46,1.52,1.1,4.08-1.8,4.79-2.37,.58-3.98-.09-4.74-2.88-.39-1.44-2.04-.64-3.38-.2-3.86,1.26-7.83-1.52-8.25-4.91-.58-4.69,4.2-4.14,4.75-3.42,2.83,3.66,6.92,.34,10.18,2.57,2.6,1.78,3.24,.84,3.24,4.04Z"/><path class="k" d="M202.61,192.2c-1.48,.36-3.38-.09-3.98,2.01-.49,.08-1,.09-1.47,.24q-7.22,2.42-8.39-5.47c-.12-.78-.35-1.63-.8-2.27-2.54-3.67,.16-5.21,2.83-6.1,1.86-.62,4.02-.17,4.31-2.96,.04-.36,.65-.96,.98-.95,6.37,.26,10.71-4.86,16.46-6.18,3.65-.84,5.27,1.02,4.61,4.95-.46,2.68,.81,4.49,3.51,5.19,.53,1.71-.75,3.13-.78,4.75l-.11,.12c-3.63,1.7-7.77,.91-11.57,2.7-2.25,1.07-4.28,1.81-5.59,3.97Z"/><path class="h" d="M1089.08,537.99c.5,0,1.02-.09,1.49,.01,2.44,.5,5.49-1.4,7.28,1.48,1.32,2.12-.23,12.76-2.17,13.66-1.91,.88-4.26,1.08-6.3-.78-2.36-2.16-4.94-4.14-8.58-2.52-.89,.4-1.95,.09-2.54-.98-1.59-2.9,2.98-10.8,6.31-10.86,1.5-.03,2.99,0,4.49,0Z"/><path class="c" d="M458.09,37.49c-.87,2.83-3.47,3.16-5.46,3.95-1.64,.65-3.26,2.08-5.68,.16-3.46-2.76-5.25-6.63-7.77-9.92-2.36-3.09,1.02-5.59,3.26-7.82,2.35-2.33,3.87-.56,5.37,.98,3.28,3.36,6.49,6.78,8.98,10.8,.42,.68,.91,1.31,1.29,1.86Z"/><path class="h" d="M27,47.92c-3.46-2.08-5.94-3.9-9.44-3.28-.31,.05-.77,.05-.96-.14-3.45-3.28-.95-7.46-1.55-11.18-.25-1.56-.96-4.06,1.67-4.5,1.99-.33,3.7-1.39,5.48-1.78,4.43-.96,4.11,4.24,4.43,5.77,1.02,4.85,.38,10.05,.38,15.11Z"/><path class="c" d="M218.91,335.94c.08-1.88-.6-3.53-1.3-5.25-.58-1.43-3.11-2.36-1.81-4.14,1.5-2.06,3.32-4.4,5.54-5.28,1.82-.72,3.88,2.73,4.36,3.63,2.64,4.96,7.57,7.79,10.62,12.32-1.14,1.49-2.91,1.57-4.19,2.63-3.87,3.2-6.57,2.66-9.27-1.93-1.04-1.77-2.33-1.5-3.73-1.71l-.22-.27Z"/><path class="h" d="M466.34,72.62c-1.16,0-2.37,.22-3.45-.05-1.86-.46-5.46,1.65-5.29-1.64,.17-3.47-.32-8.8,6.12-8.36,2.46,.17,4.95,0,7.42,.01,4.33,.03,5.43,2.6,5.54,6.46,.12,4.44-2.9,3.47-5.39,3.55-1.65,.06-3.3,.01-4.95,.01Z"/><path class="h" d="M350.35,166.58c-5.26-4.6-4.93-12.54,.15-15.36,.33,4.97,.49,9.77-.15,15.36Z"/><path class="n" d="M566.45,206.35c.12,2.31-5.22,9.37-7.31,10.78-1.89,1.28-2.66,.28-3.7-.76-1.28-1.28-1.18-2.58,0-3.93,2.01-2.31,4.75-4,5.55-7.37,.26-1.1,1.92-1.8,3.39-1.2,1.1,.45,2.12,1.02,2.07,2.47Z"/><path class="j" d="M322.78,10.87c-.08,2.03-.08,4.05,.91,5.92-3.25-1.52-1.74-3.77-.91-5.92Z"/><path class="j" d="M327.67,10.68c-1.59,.01-3.18,.02-4.76,.03,1.58-1.33,3.17-.91,4.76-.03Z"/><path class="n" d="M722.52,742.01c3.92,.61,4.22-3.11,5.52-5.11,2.3-3.54,6.27-6.18,6.51-10.94,.77-.32,1.34-.74,1.73-1.58,3.56-7.77,6.2-7.68,12.56-1.72,2.79,2.62,3.99,3.99,1.66,7.07-2.56,7.84-8.27,13.84-12.28,20.84-1.92,3.35-6.08,3.12-8.39-.06-1.33-1.83-2.78-3.82-5.03-4.65-1.95-.72-2.49-2-2.28-3.85Z"/><path class="n" d="M432.53,124.68c4.53,2.57,9.56,2.93,14.58,3.35,1.77,.15,3.52,.46,5.28,.7-.68,3.77-1.02,7.56-.66,11.39,.18,1.86-.41,3.09-2.45,2.47-7.93-2.42-16.14-3.02-24.31-3.93,2.57-2.99,3.78-6.51,3.34-10.37-.41-3.61,1.22-4.25,4.21-3.62Z"/><path class="k" d="M219.89,185.42l.38,.28c-.17-.05-.33-.11-.5-.16l.11-.11Z"/><path class="h" d="M746.49,64.05c0,1.66,.15,3.33-.04,4.96-.21,1.88,3.42,3.69,.33,5.45-2.54,1.45-10.19-.14-11.61-2.04-2.53-3.39-2.06-7.97-4.61-11.42-.7-.94,.25-2.03,1.67-2.42,3.54-.99,6.98-2.37,10.55-3.18,2.13-.48,3.22,1.37,3.52,3.19,.29,1.77,.06,3.63,.06,5.45h.13Z"/></svg>